<?xml version="1.0" encoding="UTF-8"?>
<svg id="Layer_1" xmlns="http://www.w3.org/2000/svg" version="1.1" viewBox="0 0 53.6 47.5">
  <!-- Generator: Adobe Illustrator 29.8.2, SVG Export Plug-In . SVG Version: 2.1.1 Build 3)  -->
  <defs>
    <style>
      .st0 {
        fill: #fff;
      }
    </style>
  </defs>
  <path class="st0" d="M47.9,26h0l-.4-1c.2-.2.3-.5,0-.7-.3-.1-1.2-1.2-1.5-.5,0,0-.9,0-1,.2-.3-.5-.6-1.1-.8-1.8.2-.8,2.2-1.7,2.2-1.7l-.8-1.3c0,.2-.2.1-.4.2,1-2,1.3-4.6-.2-6.5,0-.4,0-.8-.2-1.1-.3-.4-.4-1-1-1.1,0,.6,0,1.2.3,1.7.3.4-.4.7-.6.4.4,0,.5-.1.3-.3-1.8-.5-2.9.9-4.7,1l-.4.3c-1,1.4,1.4.4,1.6,1.4-.4.3-.4.1-.8,0-.6,0-1.1.2-.4.7-.4.6-.4.9-1.3,1,.4.5.3,1.2.4,1.8-.6.1-1,.4-1,1-.3.1-.6,0-.8.3-.4-.3-.8-.4-1.3-.4l-1.4-.8.4-1.3,1-.6c-.2-.1-.5-.8-.6-1,1.1-3.8,1.5-4,2-4h0c0-.1-2-.8-2-.8h0c.5.5.7,1.1.4,1.9-.5-.3-.8-.8-.7-1.3h-.2l-.7,2.3h0c.3-.4.8-.6,1.3-.5-.6,2-3.4,1.4-3-.3.4-.7,1.1-.3.8.4,1.6-.5.6-2.8-.7-1.4.4-1,.7-1.7.1-2.6-.7.5-1,1.4-.8,2.5-.9-2-2.4,0-1.2,1.1-.2-1.5,1.7-.5.4.7-1.2.9-2.7,0-2.7-1.6.7,0,1.2.5,1.3,1l.2-2.6h-.2c0,.5-.6,1-1.4,1,0-.8.5-1.4,1.1-1.5v-.2h-3v.2c.6,0,1,.7,1.1,1.5-.7,0-1.3-.5-1.4-1h-.1v2.6h.2c0-.5.6-1,1.3-1,0,1.5-1.5,2.5-2.8,1.6-1.2-1.2.7-2.2.4-.7,1.3-1-.3-3.2-1.2-1.1.2-1.1,0-2-.8-2.5-.5,1-.3,1.6.2,2.6-1.4-1.4-2.3.9-.7,1.4-.4-.7.3-1.1.7-.4.5,1.7-2.3,2.3-3,.3.6-.1,1,.1,1.3.5h.1l-.7-2.3h0c0,.5-.3,1-.8,1.3-.2-.8,0-1.4.5-1.8l-2.1.6c.6.1,1,.3,2,4.1l-.5,1,1,.6c0,.4.2.7.3,1.1-2.8,1.3-2.1,2.2-4.2,2-.2.4-.4.8-.8,1.1-.1-.7-.4-1.2-.8-1.6-.2-.3-.5,0-.8,0-.5,1.2-1,.1-2,.8.1.6.2,1.1.5,1.7-.7,0-1.3-.3-1.8-.6-2.3,2.5-4.6,4.9-6.5,7.6-1,1.4-3.8.6-3-1.3.3-1.3,2.2-1,2.1.3,1-1,.4-2.1-1.1-1.9,1.3-.6,2.2.5,3.4-1-1,0-1.7-.3-2.7,0,1.2-.8,2.8.3,3.8-1.7-.8.1-1.6.5-2.5.6,5.4-5.2.2-5.4.8-7.7-.4.4-.6.7-.4,1.2-1.3-.5-3-.3-3.6-1.8-.1,2,.8,2,2.4,2.4-.7-.1-1.4-.1-2.1-.4.1,1,.8,1.2,1.7,1-.8.5-.6,1.7.2,2.1-.5-3,4-2,2,.8-1,1.5-2.4,2.5-3.6,3.8-.2-.4-.5-.8-1-.7,1,1,0,2.2-.3,3.2-.4,1.4.8,2.5,2,2.6-.5.6-.5,1.2,0,1.6.4-1.9,3.2-1.5,3.4-3.6,0-.2.2-.4.5-.5-1.3,1.4,1.8,4.4-1.1,4.8-.4,0-.5.5-.3.8-1.2,0-1.5.3-1.7,1.5l1.5-.4c-.5,1.3-1.7,0-1.5,2.3l1.4-.7c.4,1.3-2.2.7-.2,2.9.2-.5.5-1,.9-1.4-.3.7-.2,1.4.6,1.7v-.5h0c0,.5,0,1.1.6,1.4l.3.3c0,.2.3.3.5.3.3,0,.3-.2.6-.4,0,.4.4.4.6.7.2-1.7-2.1-1-1.6-2.2.2.7.9.5,1.3.8.2.3.7.6.9,0l.6.5c-.5-2.1-1.6-.8-2.2-1.9.4,0,1,.7,1.4.2l.7,1c.1-.7-.1-1.2-.7-1.6-.5-.3-1.4.3-1.9-.4-.6-.9-.6-2-.3-3,.4-.8,1.3-1,1.7-1.8-.1.6,0,1.7.7,2-.2-1.2.6-2.3.8-3.4.2-.3.2-.6,0-.9-.3-.6-.4-1.3-.8-1.8-.6-1-1.4-1-.1-1.8-.8,1.1-.2.7.5,1.8.1-.3.7-.8,0-.8-1.1-.6,1.4-2,2-2s1.3,0,1.8-.6c-.3-.5-.6-.5-.1-1-.3-.2-.6-.5-.7-.9l-.8.3c.3-.3,1-1,1.2-.2,0,.4.4.5.7.5-.2.4-.6.7-.3,1s.4.8.8.8l.3-1c.8.8-.9,1.3,1.4,2-.1-.4-.2-.9-.1-1.3,1,.9-.5,1.4,2,1.7-.3-.3-.4-.7-.5-1,.4,0,.8.4,1,.7.3.4.5.6,1,.2v.2c.4.2.3.5.3.7.4-.3.4-.7.3-1.1-.2-.9-1.2-.2-1.6-1,.5.3,1,.5,1.5.2l.5.8c.3-.8,0-1.7-1-1.5-.2.1-.4.1-.6-.1.4.1.7-.1,1-.3v.2c.3,0,.5.1.7.3,0-.7-.7-1.3-1.4-1.1-.2.9-1,.4-1.6.2-1-.5-1.4-1.6-2.3-2.3.1-1-.8-1.8-1.8-1.8,1-.4,2,.4,2.1,1.4,0,.4.3.6.5,1,3.2-6.3,13.3-8,19-4l1.6,1.3c.2-.6,0-1.3,1-1h.2c-.1-.5.2-1.1.7-1.2v.4c-.2,0-.4.3-.4.5.2,0,.4.2.3.4h.5c0-.1.4-.1.4-.1-.2.5-.9.7-1.3.3,0,.1-.2,1.2-.3,1.3,0,.2,0,.3-.3.3l.2.3c.2-.2.6-.2.6-.5s0-1.2.2-1.1c0,.4,0,.8,0,1.1.9-.2.5-1,1.5-1.1.4,0,1.3-.3,1.5.1-.9-.2-2,0-2.2,1-1,.3-1.7,1-2.7,1s-1,1-1,1.6c-.2.7-.2,1.5-.5,2.1-.2.3,0,.6,0,.9.3.1.5,1.1.6,1.5,0,.7,1.2,1,1.6,1.3.2-.8-1.4-.6-1.2-1.7.3.7.9.9,1.6,1.3-.3-.8-.3-2.1-1.4-2-.4-.6.2-.6,0-1.3.3,0,.5.2.5.4h-.3c0,.4.5.5.8.9,0-.9,0-1.4-.9-1.8-.4-.4,0-1.3,0-1.8,0-.2,1-.7,1.3-.7.7.1,1.5,0,2.3.2.7.2,0-1.4,1.3-.5-.9-.3-.4.7-1,.7h-1.3c1.6,3.5,5.1,2.4,6,5.6.9-.7.3-.7,0-1.5,1.8,1.2-1.7,2.6-.4,4.8,0-.3.8-1.3.9-1.5,0-.2.4-.2.5,0l.3-.6c-.5-.2.4-1.4.5-1.7,0-.2.3-.3.4-.2l.3-.7c-.5-.1-.2-1.2-.2-1.6l-1.7-2h.3c0,.1,0,.3.2.4.2,0,1,.9,1.3.7l.2.4c-.3,0-.3.3-.3.5l.4.3v-.4h.4v.9l.4.4c0-.3.3-1.6-.2-1.7h0ZM38.7,14h.4c-.2-.2,0-.4.2-.3.4.4-.5,1-.6.3ZM20.5,17.3l-1-.6.6-1,1.4.5-1,1.1ZM23.7,16.5c-1.5.3-1.8-1.3-.3-1.6s1.8,1.3.3,1.6ZM27.1,16.4l-1.5-1,1.5-1,1.4,1-1.4,1ZM31.8,15.9c-.2,1-2.6.6-2.4-.4s2.6-.6,2.4.4ZM32.6,16.2l1.4-.5.5,1-1,.6-.9-1.1ZM44,11.4c.3.3.4.7.4,1-.3,0-.4-.3-.4-1ZM42.8,13.4c-.4.2-.7.6-1.1.1h-.2c.5-.8.5-.6,1.3-.1ZM39.8,16.4c.2.2.4.3.6,0-.2,0-.3-.1-.3-.3-.2-.8,1.2-.5,1.7-.5,1.2.8,3.3.3,2.6-1.5.5.4.3,1.4,0,1.8-1.1.6-2.2,0-3.4,1.3,0-.5-.8-.5-1,.1h-.5c0-.3.2-.5.3-.8h.1ZM44,21.8v.2c-1.7-1.3-3.6-2.1-5.7-2.1v-.3l.6-.3-.5-.4-.3-1.9h.8s-.3.3-.3.6h0c.2.1.4-.3.4-.3v1.1l-.3-.4h0c0,.8,1.2.9,1.2.3s-.4-.3-.4,0c-.5-.4.2-1.1.5-.4,0-.4,0-.7.4-.9.2.3,0,.6,0,1,.6-.7.9.4.2.6.3-.6-.6-.4-.2.2.3.5,1,.4,1.3-.1h0c0-.1-.7.1-.7.1l.4-1s0,.4.3.5h.2l-.2-.7,1.2.5s-.5,0-.7.3v.2l.8-.2-.5,1s0-.5-.3-.6h0c-.2.6.3,1.2.9,1,.6-.2,0-1,0-.3-.5-.6.5-1.2.6-.2,0-.5.3-.7.6-.8,0,.4,0,.6-.4.9.8-.3.8.7,0,.7.3-.3,0-.5,0-.3-.5.4.3,1,1,.7,0-.2-.5-.2-.5-.2l.8-.6v.6h0c.2-.2.2-.6.2-.6l.6.7-1.7.9h-.5s.2.5.2.5ZM47.2,24.8c-.2,0-.4,0-.3.3l-1-.6v-.2c.2,0,.4,0,.4-.3,0,.1,1,.6.9.8Z"/>
  <path class="st0" d="M36.8,20.6v-.3l-.3,1,.2.2h.3l.2-.9c0,0-.3.1-.4,0ZM24,44.7c-2.5-1-4.2,1.4-2.3,1.8-2.1,0-1.7-3-2.6-2.8.8.8.8,2.4,1.5,2.9,1.5.6,3,.7,4.5.6-.8-.7-1-1.6-1.2-2.5h.1ZM31.3,46.5c2-.4.3-2.8-2.2-1.8-.2.9-.4,1.8-1.2,2.5,1.6,0,3.1,0,4.6-.7.7-.4.7-2,1.5-2.8-1-.2-.5,2.8-2.7,2.7h0ZM47.2,27.5h0c0,.1.4.1.4.1.2,0,0-.3,0-.4l-.4-.5v.8ZM46.6,30.4s.6-1.1.5-1.2h-.3c0-.1-.6.9-.6.9.2,0,.4.2.4.4h0Z"/>
  <path class="st0" d="M53.5,25.8c-.5.1-.7.5-.9,1-1.2-2-3.7-3.3-4-5.8.3-2,2.8-1.5,2.3.6,1.4-.8.7-2.1-.6-2.3,1.4,0,2.2,1.2,3-.7-.7.3-2,.1-2.4,0,1.7-.2,2.7-.2,2.6-2.3-.6,1.3-2.2,1.3-3.3,1.7,0-.6,0-.9-.6-1,.5,3-5.4,2,1,8.7-.7-.5-1.7-.3-2.4-.8.6,1.6,1.6,1.3,2.9,1.9-1.4,0-1.9,1.3-.8,2-.3-1,1.2-1.8,1.9-1,1.7,2.2-1.4,5.2-4.1-.2,0,.3-.2.6-.5.5l-.3.8c.6.2-.3,1.4-.4,1.8,0,.2-.3.3-.5.2l-.3.6c.3.3-.7,1.3-.8,1.6,0,.2-.3.2-.5,0v.3c.7.8,1,1.4.8,2.3.6-.5.8-1.8.4-2.5.5.5,1.2.9,1.5,1.6.3,1.2,0,2.4-.8,3.3-.3.4-.2.6-.3,1-.2.7-1,.8-1.4,1.3l-.7,1.5c1,0,.8-1.4,1.7-1.7l-1,1.7c.8-.2,2.2-.4,2-1.5-.3-.4.2-.8.2-1.2.6-.2.4-.5.7-1,.2.4.2.6,0,.9v-.4c-.5.6-.2,1.1-.2,1.7,2-1.8-.7-1.8,1.4-5.8.5-.8-1.4-.7-1.5-2.5,0-.8.5-1.5.7-2.2.8,1.4,3.7,1.4,3.3,3.2.5-.4.5-1.2.3-1.8,3-1,.6-3.7,1.6-5.7h-.1Z"/>
  <path class="st0" d="M44.8,32.7h0c0,0,.2,0,.2,0,0,0,.7-1,.6-1.1l-.2-.2h-.2c0,.2-.8,1-.6,1.2h.1ZM16,37h.9l-1.3-2.3c-.8,1-2.2.4-3-.2-.8-.5.7-1.3.3-3,.6,1-.6,2,1.3,2.6-.5-.8-.5-1.9-.7-2.8v-.5c.1-.2.1-.5-.2-.5-2-1.2-1.6-.6-3.7-1-.5,1,.6,1.8.4,2.6-.1.5.5.4.5.9.1.6,0,1.5-.7,1.8-.3.2,0,.7.3.8-.7,1.1-.2,1.3.8,2,0-.5,0-1,.2-1.3,1.4.9-.7,1,2,2.2-.2-.5-.2-1-.2-1.4h.7c.3,1.4,1,1.5,2.2,1.4-.4-.4-.5-1-.8-1.4.3,0,.7-.2,1,.1ZM40.6,30c-.3,0-.4.2-.4.5-.4,1-.4,2-1.1,2.8,1.5-.4,1.2-1,1.6-2.2,0,1.6,0,1.6.6,2.7-1.2.8-3.2,0-3.8,1.7.2.2.4,0,.6,0,0,.2-.2.5-.4.6v-.3c-.4-.2-.7.8-1,1.2,3.1-.7-.4-1.6,5.8-2.3,1-.5-1-1.3,1.1-2.7.2-.8.3-1.5.7-2.2,0-.2,0-.5-.2-.7-1,.7-1.4-.4-3.5.9ZM8.7,17v-.7h-.6c.2-.2.6-.4.9-.3-.2,1,.2,1.7,1.3,1.7.3-.5.6-.5,1-.2-1.5-.1-.4,1.4.3.9.2-.3.8-.5.7-1-1.2-.8-1.1.5-1.3-1.6h-.2c0,.4-.5.7-.8.3l-.4-.3c.8-.6,1.7.3,1.7-1.1.9,1,1-.2,1.8-.2,0,.9-.2.8-1,.8.3.1,1.2,1,.7,1.2-.3-.6-.6-1.2-1.3-1.3-.5.5-.2,1.1-.2,1.7.5-.1.9-.4,1.4-.4.1.5-.6.7-.2,1.2.8.1,1.6.1,1.3-1-.2,0-.5-.2-.7,0,0-.3.4-.4.7-.3.7-.7.5-1.7-.3-2.3.2-.3.4-.5.8-.5-.1.2-.4.3-.4.5l.4.6c.4-.2.5-.8.3-1.4-.5,0-1.4.5-1.4.5-.4-.2-.2,0-.2.2-1.3.3-2.6.6-3.7,1.5-.2.2-.3,0-.3-.2-.2-.2-.2.2-.2.2,0,0-.8.2-1.2.5.3.4.6,1,1.2.9h-.1Z"/>
  <path class="st0" d="M14,16.6c.1.6,0,1-.4,1.6.6,1,1.6,1.8,2,3,1-1.9,0-2.5-1.4-3.5.9.3,1.8.6,2.2,1.4.1-1.6-.6-2.4-2.1-2.6.6-.1,1.3-.1,1.9.3-.2-.5-.6-1.2-1.2-1.2.2-.4.2-.7,0-1,0,.3-.3.5-.6.5,0,.6,0,1-.4,1.5ZM9,20.2c.3.5.5,1,1,1.1-.3-.8.3-1.6.6-2.4,0,1.8-1,2.8,1.5,3.5-.7-1-.2-2.4-.6-3.5-.5-.2-1-.3-1.2-.6,0-.2-.2-.2-.3-.3-.5,0-1-.2-1.2-.6-.3.1-.6.1-.9,0,0,.3.4.7.8.6-.4.5-.2,1,0,1.5.2-.5.6-.9,1-1.1-.3.5-.9,1.1-.6,1.8h0ZM19.2,39c.3-.4-.1-.6-.3-.8-3-2.9-4.2-6.5-4-10.6l-.2-.2c-.6,4.4,1.1,8.7,4.5,11.6ZM46.3,15.4c-.3.6.5.8.5,1.3l-.6-.4c-.3,1,1,1.3,1.3,2.1.5-1.5.2-2.4-1.2-3ZM13,19.9c-.9,0-.8-1-1-1.6l-.4.5.5,1.7.4-.3c.6.4,1,.2,1.3-.5.1,0,.3.1.4,0l-.8-1.6c-.1,0-.3-.2-.5,0,.2.5.9,1.5,0,1.8h.1ZM46.1,13h-.8c.3.9,1.4.4,2,.8-.4-.7-.6-1.4-1.5-1.5,0-.5,0-.9-.3-1,0,.3-.2.6-.5.8-.2.7.6.7,1,.8h0ZM45.9,18.1c-.3.9.3,1.6.6,2.3.6-1.1.6-2.3-.3-3.2-.3.6,0,1.1.2,1.7l-.5-.7h0ZM45.7,13.6c.3.9.9.7,1.2,1.2l-.8-.3c0,.9,1,1,1.7,1.3,0-1.4-.8-2-2.1-2.2ZM42.5,12.1c.3,0,.9.3,1.2,0,0-1.1-1.5-1-2.3-1,.3.5.6.9,1,1h0ZM38.3,29.2h-1v.4h.6c0,1.1-.5,1.1-1.2.7-.2,1.3,1.8,1.1,1.6-1h0ZM37.6,25.2c-1.1,1.4-1.1,1.6.6,2.2v-.4c-.4,0-.7-.2-1-.4l.6-.8s-.2-.6-.2-.6ZM32.4,20.3h.5c.2-.7-.2-.8-.6-1.2-.2.6-.7.9-1,1.3.5,0,.7-.2,1-.5,0,0,0,.4,0,.4ZM35,23.3c0-.5,1-1.5.5-1.9-.2.2-.6.1-.6.4v1.5h0ZM43.3,11c-.4-.7-.6-.9-1.4-.9,0,.8.8.8,1.4,1h0ZM41.2,9c0,.6.5.9,1.3.9-.3-.6-.7-1-1.3-.9ZM39.3,15c-.6-.3-1.1,0-1.8,0,.2.8,1.3.2,1.8,0ZM40.6,8c0,.7.4.8,1,.7-.2-.5-.5-.7-1-.6h0ZM40.9,7.8c-.2-.5-.4-.6-.9-.5.2.5.5.7.9.5ZM37.9,23.8l.5.8c.6,0,0-.5,0-.7,0,0-.5-.1-.5,0ZM36.2,24.5l.9-.5-.2-.3c-.3.3-.9.4-.7.8ZM40.2,7c0-.3-.4-.7-.7-.6,0,.3.4.6.7.6ZM10.1,12.3c.2-.1,0-.4-.2-.2s0,.4.2.3h0ZM10.3,12.8c.2-.2,0-.4-.2-.3-.2.2,0,.5.2.3ZM9.2,10.7h-.4l.2.6.3-.4v.8c.1.6,1,.2.7-.3l-.4-.5h.4l-.2-.6-.3.3v-.5c-.1,0-.6.2-.6.2l.3.4ZM8,13.4c.3,0,.3-.3,0-.3s-.2.3,0,.3ZM8,14c.3,0,.3-.4,0-.4s-.2.4,0,.4ZM8.8,12.2c.3,0,.3-.4,0-.4s-.2.4,0,.4ZM8.2,13c.3,0,.3-.4,0-.4s-.2.4,0,.4Z"/>
  <path class="st0" d="M10.6,13.5v-.6c.1,0-.7.3-.7.3l.5.3h-.4l.3.6c0-.2.2-.4.3-.4.3.5-.5,1-.9.6-.1-.2,0-.4.2-.2,0-.4-.3-.4-.4-.1,0-.4-.1-.6-.5-.8-.1.4,0,.7.4.9-.2,0-.5.1-.2.4,0-.2.2-.3.4,0,.1.4-.4.6-.8,0h.2l-.4-.4v.4l-.2-.4-.3.2c.3.2.6.5,1,1.1.6-.4,2.9-1.4,3.9-1.4-.1-.8-.1-1.2,0-1.6h-.4v.4c.1,0,0,0-.2-.3v.7c.2,0,.2-.2.3-.2,0,.6-.5.9-.7.4,0-.2.2-.3.3-.1,0-.4-.3-.4-.4-.3.2-.4,0-.6-.3-.8-.2.3-.1.6.2.9-.3-.2-.5,0-.3.4,0-.3.3-.2.3,0,0,.5-1,.7-1,0,0,0,.3,0,.5.2l-.3-.7c0,.3-.2.4-.4.4h0ZM21.3,34.6l1,.6c-.8.9.5,1.3.5.4.5.2,2.5.8,1.7-.4-2.7,0-4-2.6-2.5-4.8.8.5,4-1,3.7.5.1.1.2.2.6.2.9-2.1-2.2-1.5-3.3-1.3-1,.3-2-1.1-2.8-.3-.4.3-.1,1,.3,1s.6-.6.2-.7c.8-.3.4,1,.1,1.3-1-.5-1,1-.1.7v.7c-1-.2-.8,1.3,0,.7.2.2.3.5.3.8-1,.2-.2,1.5.3.6Z"/>
  <path class="st0" d="M24.2,36.2h-.1c-.1,0-.2.5,0,.6l.8.4,1-.8.4-4.4h-.3c-.1,0-.7,5-1,4.8l.8-4.8h-.4v.2l-1.2-1.6h-.2l1.3,1.8v.3l-1.6-2h-.2l1.7,2.2v.3c-.1,0-2.1-2.5-2.1-2.5h0l2,2.7v.4l-2.3-3h-.3l2.5,3.2v.3l-2.9-3.6v.3l2.6,3.6.2.8c0,.3-.2,1-.6.8Z"/>
  <path class="st0" d="M24.5,34.8l-2.7-3.5v.3l2.5,3.3h.2ZM21.8,32.5c.7.8,1.3,1.6,2,2.4l-2-2.9v.5ZM26.4,31.2h-.9c-.5.4,0,.7.5.6.4.1.8-.4.4-.6ZM26.3,43.6c0,.4.5.5.6,0s-.5-.5-.6,0ZM26.9,41.3c0-.5-.7-.7-.8-.2,0,.5.7.6.8,0h0ZM24.3,40c0-.5-.7-.7-.8-.2-.1.5.7.6.8.2ZM28.5,44.7c-.4,1.8-1.2,2.5-2,2.5s-1.5-.7-1.8-2.5l.3.3v.3c.1,0,.4-.2.4-.2h.2c0,0,0,.6,0,.6,0,.5.5.9,1,.9s.9-.4,1-1v-.6c-.1,0,.2,0,.2,0l.2.2.2-.2c0-.2.2-.3.3-.4M28.8,44.2c-.4,0-.6.4-.9.7-.2,0-.4-.3-.7-.3h-.4c.8.5.5,1.7-.2,1.7s-1.1-1.2-.3-1.6c-.1,0-.3,0-.4,0-.2,0-.5,0-.7.2-.2-.3-.5-.6-1-.7.3,2.2,1.3,3.3,2.3,3.3s2-1,2.3-3.3ZM21.6,38.4c.3-.4-.8-.9-1-1.1s-.3,0-.4,0c-.3.4.8,1,1,1.2h.4Z"/>
  <path class="st0" d="M21.5,39.3c1.3,0,1-2-.2-1.8.6.3,1.1,1.1.2,1.4-.4,0-.7-.3-1-.5,0,.5.5.9,1,.9Z"/>
  <path class="st0" d="M19.6,39.6c.3.6,2,2,2.4,1.4-.8-.5-2.2-1.5-1.6-2.8-1.2-.7-.2-1.9.8-.9,1-.6,2,0,3,.5.4-.7-1.3-1.2-1.7-1.5-.5,0-2.1.2-2.6.2s-.7.4-.6.8c0,.4,0,2,.3,2.3ZM34.3,10.7l.7.2c-1.1-2.4-3.2-4.3-5.8-5l-.2.6c2.2.6,4.1,2.1,5.3,4.2ZM19,10.9l.8-.2c1.2-2.1,3-3.6,5.3-4.2,0-.2-.1-.4-.2-.6-2.6.7-4.7,2.6-5.8,5h0ZM32.6,7c.5,0,.5-.9,0-.9s-.5.8,0,.8h0ZM30.7,5.9c.6,0,.6-.9,0-.8-.5,0-.5.8,0,.8ZM29.7,5.5c.6,0,.6-.8,0-.8s-.5.8,0,.8ZM31.7,6.3c.5,0,.5-.8,0-.8s-.5.9,0,.8ZM33.4,7.6c.5,0,.5-.8,0-.8s-.5.8,0,.8ZM35.5,10.7c0,.5.9.5.8,0,0-.6-.8-.6-.8,0ZM35,9.7c0,.5.9.5.9,0s-.9-.5-.9,0ZM34.2,8.4c.5,0,.5-.9,0-.9s-.5.9,0,.9ZM34.5,8.8c0,.5.8.5.8,0s-.9-.5-.8,0ZM21.5,7c.5,0,.5-.9,0-.9s-.5.8,0,.8h0ZM20.7,7.6c.5,0,.5-.8,0-.8s-.5.8,0,.8ZM18.2,11c.5,0,.5-.8,0-.7-.5,0-.5.8,0,.8h0ZM22.4,6.3c.5,0,.5-.8,0-.8s-.5.9,0,.8ZM19.3,9.2c.5,0,.5-.8,0-.8s-.6.8,0,.8ZM18.7,10.1c.5,0,.5-.8,0-.8s-.6.8,0,.8ZM24.4,5.5c.5,0,.5-.8,0-.8s-.5.8,0,.8ZM20,8.4c.5,0,.5-.9,0-.9s-.6.9,0,.9ZM23.4,5.9c.5,0,.5-.9,0-.8-.5,0-.5.8,0,.8ZM27.8,9.6h.5c0-1.7.2-3.2.7-4.1.1-.3-.4-.6-.5-.3-.6,1.5-.7,3.4-.7,4.4ZM25.8,9.6h.6c0-1-.1-3-.8-4.4-.1-.3-.6,0-.5.3.5,1,.7,2.4.7,4.1ZM27,9.6c.6,0,.6-.8,0-.8s-.5.8,0,.8ZM27,8.5c.6,0,.6-.9,0-.9s-.5,1,0,1h0ZM27,7.4c.6,0,.6-.9,0-.9s-.5,1,0,1h0ZM26.7,6.3h.7c.6-1-1.3-1-.7,0Z"/>
  <path class="st0" d="M27.4,5.4c.5-.9-1.2-.9-.7,0h.7Z"/>
  <path class="st0" d="M26.8,1.7c0,.6-.4,1-.7,1.1h0c0,0,.7,0,.7,0h-.1c-1.3.4-1.4,2.4-.2,2.8-.5-.5-.1-1.3.6-1.3s1,.8.5,1.3c1.2-.5,1-2.4-.2-2.7h.6v-.2c-.3,0-.6-.5-.7-1,.6,0,1,.3,1,.7h.2V.5h-.1c-.1.3-.5.6-1,.7,0-.6.3-1,.6-1v-.2h-2c.4.2.7.6.8,1.2-.6,0-1-.4-1-.7h-.2v2h.1c0-.4.5-.7,1-.8h.1ZM44.4,32.9v-.2c0,0,0,.2,0,.2h0ZM44,33.7c-.5-.3-.8,1.2-1,1.5-.2.2,0,.5,0,.6l-.4.8c-.2,0-.4,0-.4.4,0,.3-.2,1.8.4,1.8v.4c-1.5.3-1.3,2.5.2,2.5s1.7-2.2.3-2.5v-.4c.2,0,.4,0,.4-.3s.2-1.8-.3-1.9l.3-.6c.6.3.9-1.2,1-1.5.2-.2,0-.4,0-.5l.2-.5-.4-.5-.3.7h0ZM43.8,40.5c-.4,2-3,0-1.1-.9,0,.2.4.2.5,0,.3,0,.6.5.6.9ZM43.2,38.5c0-.4-.3-.5-.5-.3,0,0,0-1.2,0-1.2h.4v1.4h0ZM44.2,34.5l-.5,1.1h-.3c0,0,0-.2,0-.3,0,0,.4-1.2.6-1.2,0,0,0,.2.3.2h0c0,0,0,.2,0,.2ZM15.4,31.2v.5l2.3-.3v-.4l-1.6.2s1.3-1.5,1.3-1.7l-2.3.2v.4h1.4c0-.1-1.1,1.1-1.1,1.1ZM16.2,34c1,1.1,2.7-.5,1.6-1.6-1-1-2.8.6-1.6,1.7h0ZM16.2,33c.6-1,2.1-.4,1.5.6-.5.8-2,.3-1.4-.7h-.1ZM17.7,36.5l.4.6c.4-.5,1.2-1.1,1.8-1.4l-.4-.5-.7.7-.6-.8c.2-.2.6-.5.8-.5l-.3-.5c-.4.5-1.3,1-1.9,1.3l.4.5.7-.6.6.8-.8.4ZM17.5,28.7v-.4h-2.3v.4h2.3ZM33.7,38.4c1.3-.6,1-2-.5-1.3-.7-.2.2-.9.6-.7l-.3-.4c-.5.2-1.3.8-.9,1.4.3.4.9,0,1.3,0,.6,0,0,.7-.5.7M37.4,33.6l.4-1.3-2.1-.6-.4,1.3.4.3v-1c0,0,.8.2.8.2l-.3.7h.3l.3-.6.6.2c0,.2-.2.4-.3.5,0,0,.3.3.3.3ZM36.5,35.4l.2-.4-1.7-1.2-.2.4,1.2.7-2,.4,1.8,1.2.2-.3-1-.6s1.5-.2,1.5-.2ZM31.7,39.7l1.2-.7c0,0-1.1-1.7-1.1-1.9l-1.2.7v.5l.8-.7.4.6-.7.4.2.2.6-.3.4.5-.6.2s0,.5,0,.5ZM18,24.3c-.3-.3-.7.2-1.1.3-.6,0-.1-.8.2-.8l-.3-.3c-.5.3-1,1.6,0,1.6l.8-.4c.5,0,.3.5,0,.7h.4c.3-.4.4-.9,0-1.1ZM18.5,23.6c-1,0-1.2-1.8,0-1.6v-.4c-1.5,0-1.5,2.5,0,2.4v-.4ZM21,20.5h.8l-.5-.8,1-.3-.6-.4-1.7,1,.2.7.6-.7.3.5h0ZM26,20.2c-.3.3-.7.2-1.1,0-1,.6-2.2-.8-1.4-1.7,1-1,2.7.1,1.9,1.3,0,0,.6.4.6.4ZM24.7,19.9c.9-.4.1-1.7-.6-1.4-.8.4-.1,1.7.6,1.4ZM26.3,19.3v-1.4h.7c-.1.4-.4,2,.3,1.9.3,0,.5-.2.5-.5v-1.4c-.1,0,.6,0,.6,0v2.2h-.6c-.6.4-1.5.1-1.5-.7h0ZM29.5,20.4c.2-.6.4-1.5.7-2l-.6-.2c0,.6-.3,1.5-.5,2l.4.2ZM33.1,27.7h.4v-6h-5.5v6h5.1ZM28.1,25h.2c.2.1.2-.2,0-.2h.3c0-.1-.3-.2-.3-.2.2,0,.2-.3,0-.3,0,.1-.1.2-.1,0h0c0,.1,0-2.2,0-2.2h.2v-.2h2c.1,0,0,.2,0,.1-.1.2.2.2.2,0v.3c.1,0,.3-.3.3-.3,0,.2.3.2.3,0h-.2,2.2s0,3,0,2.3c-.2,0-.2.3,0,.3h-.3c0,.1.2.2.2.2v.3h0c.2-.7,0,2.3,0,2.2h-.2v.2h-2c-.1,0,0-.2,0,0h0c0-.3-.2-.3-.2-.1v-.2h-.2v.2c-.1-.2-.4-.2-.4,0h.1c0,.1-2,.1-2,.1v-.2h-.2s0-2.3,0-2.3Z"/>
  <path class="st0" d="M34.3,27.9c0-.1,0-.2-.3-.2-.2,1,0-3,0-2.9h0c0,.1,0-.3,0-.3h0v-3s.3,0,0,.1c.3.2.4-.3,0-.3l.2-.3-.4.2c0-.3-.5-.2-.4,0,.2-.1.3.1,0,.1h-2.7c0-.1-.4-.1-.4-.1h0c0,.1-2.7.1-2.7.1-.1,0,0-.2.1,0,.1-.3-.3-.4-.3-.1l-.4-.2.2.3c-.3,0-.2.5,0,.4.3-1,.1,3,.2,2.8h-.2v.4h.2c0-.1,0,3.8-.2,2.9-.2-.2-.3.3,0,.3l-.2.3h.4c0,.1.4.1.3-.2h-.1v-.2h2.8v.2c-.1,0,.4,0,.4,0v-.2c0,0,2.6,0,2.6,0h0c-.2.4.3.4.3.1l.3.2v-.5c0,0,0,.1,0,.1ZM31,21.5h2.7v6.4h-6v-6.4h3.3ZM8.3,13.8l.2-.2c0-.5.3-1,.7-1.3h0c-.5.3-.9.9-.9,1.5ZM9.6,13h.1c0-.3-.2-.7-.5-1,0,0-.1,0,0,.1l.4.9ZM8.5,12.6c.2,0,.2-.4,0-.4-.3,0-.3.4,0,.4ZM12.2,11.7c-.2.2-.4,0-.3-.3.2-.2.5.1.3.3ZM12.6,12c-.2.2-.4,0-.3-.2.2-.2.5,0,.3.2ZM10.8,11.4c-.2.2-.5,0-.3-.3.2-.2.5.1.3.3ZM11.8,11.5c-.2.2-.5-.1-.3-.3s.5.1.3.3ZM12.2,12.1h-.1c-.5-.3-1-.4-1.5-.4h0c.6-.2,1.2,0,1.6.4ZM10.8,12.5h-.2l-.2-1c0,.3.2.7.4,1ZM11.3,11.4c-.2.2-.5-.1-.3-.3s.5,0,.3.3ZM32.5,32.5c.5,0,1.8-.6.9-1.1-.6-.1-1,.1-1.6.3-2,.8-.9-.2-2.2-.1.5,1.1,1.6.5,2.4.3v.3c-.1,0,.7-.2.7-.2,0-.5,1.1-.6.7,0-1.2.5-2.5.4-3.7.7-.8,2.1-2.2.7-2.2,1.3-.3,0-.3.3,0,.3,0,.6,1.6,0,1.9-.3,0,0,0-.3.2-.4.4.2.8-.5,1.2-.6.4,0,.9-.4,1.2,0,.4.4,1-.3,1.3,0v.4c0,.2.4.2.5,0h0c.2-.4,0-.7-.3-.9-.3-.3-.7.2-1,0h0Z"/>
  <path class="st0" d="M27.3,31.6v.2l1.6-.2c.3,0,.3-.3.6-.3.7,0,1-.6,1.7-.7.5-.1,1.1-.3,1.6,0,0,.2.2.2.4.2s.5-.1.6.1h-.2c0,.1,0,.3,0,.3h.2c0,.2.2.2.2.1h.2c0-.4,0-.8-.4-1,0-.1-.7.2-.7-.1.4.1,1.2-.5.7-.8-1-.3-2,.2-3,.3-.5.1-.3-.5-1.1-.4.5,1.2,1.7.4,2.7.4,0,0-.2,0-.2.2.3-.1.8,0,.9-.2,0-.3.8-.3.6.1-.5.3-1.3.2-2,.3-.7,0-1.5,0-2.2.3-.1.4-.3.9-.8,1-.4-.4-.9,0-1.2-.3-.2,0-.2.1-.2.2-.2,0-.3.2,0,.3ZM32.8,34.6c-1,0-.8.6-1.3.4,0,0,.3,0,.2-.3l-2.1.9c-.4.3-.3,1.1-1.1,1.2,0,.4-.6.6-1,.5v.3c-.1,0-.3.3,0,.3h.2c0,0,0,.1,0,.1h.1c.2-.2.3,0,.4-.2.5-.3,1-.5,1-1.1.8-.3,1.2-1.5,2.2-1.1s.6-.5,1-.5c0,.2.2.2.3,0,.3.2.3,0,.4-.3,0,0-.3-.3-.3-.3Z"/>
  <path class="st0" d="M28.4,30c-.2.4,0,1,.4,1.2.5-.2.8-.8.6-1.3.1-.1.3-.2.2-.3,0-.2-.3,0-.4-.3-.2-.2-.4,0-.6.1h-.3c0,.2.2.3,0,.5h0ZM28.3,36.1c.4,1.1,1.1-.3,1-.8.3-.3.2-.4-.2-.5-.1-.3-.4-.3-.6,0h-.3c-.2,0-.1.3,0,.4v1h.1ZM29.5,32h-.3c-.1-.4-.4-.2-.7,0-.3-.1-.3.2,0,.4-.3.4-.1,1,.3,1.2.5-.2.6-.8.6-1.2.2,0,.3-.2.1-.3h0ZM33,33.5c-.9-.3-2.2,1.6-2.8,1-.1-.3-.6-.2-.8,0,.3.2.5.7,1,.6.5,0,1-.6,1.4-.8l-.2.4c.4,0,.7-.2.9-.4,0-1,1.3-.3,0,.3h.5c.3-.4.4-.7,0-1ZM31,35.6c-.2,0-.5,0-.6.4,0,0,0,.2.2.3-.2.3-.5.2-.8.2v.6c.1,0,.3-.2.3,0,.6-.2,1-.5,1.3-1-.2-.1-.3-.3-.4-.5Z"/>
  <path class="st0" d="M30.3,33.7v.3h.2c.5,0,1.2-.3,1.4-.7l-.3-.4c-.2,0-.5,0-.6.3l.2.3c-.2,0-.4.2-.5,0-.1,0-.3,0-.3.2h-.1ZM28.3,36.6l-.5-1c.1-.2,0-.5-.2-.3-.1-.2-.2-.2-.4-.2v.3c0,.3.1.4.2.5.2.3.5,1.1,1,.7h-.1ZM28.3,31c0-.5-.5-.8-.4-1.2v-.3h-.3c-.2-.1-.2.1-.2.3h-.2c.2.4.6,1.4,1.1,1.2ZM27.3,32.6c.2.3.2.8.6,1h.5c-.1-.4-.6-.6-.5-1v-.3c-.3,0-.6-.4-.5,0-.1,0-.2.2-.1.3ZM19.5,23.2h.3v.2c.4.2,1,0,1.4-.2.2,0,.3-.3.5-.2.5,0,.8-.4,1.2-.5l1.6-.2c.6.8.7.1,1.2.4v.3h.1c0,.2.3.3.3,0,.4-.2-.1-1-.5-.8h-.5c.3-.2.7-.2.9-.4.1-.2.1-.6-.2-.7-.7-.2-1.5.2-2.3.2-1.4.4-.4-.3-1.6-.3.4,1.2,1.7.5,2.5.4l-.2.3c.3,0,.7,0,.9-.2.1-.3.9-.4.7,0-.7.8-3,.1-4,.6-.1.4-.4.7-.8.9-.4-.3-.6,0-1-.1,0-.1-.1-.2-.3-.1h0c-.2.1-.3.3-.2.4Z"/>
  <path class="st0" d="M20.8,21.4c-.3.5-.2,1,.1,1.4.6,0,.9-.8.8-1.3h.1v-.3h-.3c-.2-.3-.3-.3-.6,0h-.3l.2.3h0ZM23.7,22.5v.3c.1,0-.4.1-.4.1,0,0-.1-.2-.3-.2v.2h-.3c0,.1.2.2.2.2-.1.6,1.5,0,1.8-.2l-.2-.4c-.1-.2-.6,0-.8,0ZM20.6,22.6c0-.3-.1-.5-.3-.7-.2-.1-.2-.4,0-.6-.1-.1-.3,0-.4-.2,0-.1-.2,0-.2.2-.3,0-.1.2,0,.3,0,.3.5,1.1.9,1ZM25.6,24.9c-.2,0-.4.1-.5-.1.3-.1.6,0,.8-.4.2-.2.2-.5-.1-.6-.8-.3-1.6.1-2.4.2-1.4.4-.4-.3-1.5-.3.4,1.2,1.6.4,2.5.3l-.3.3c.3,0,.7,0,1-.2,0-.3.8-.3.7.1-.8.7-3,0-4,.5-.2.5-.5.8-1,1-.2-.3-.4-.1-.6-.1v.5l1-.2c.1-.1.2-.3.5-.3s.7-.4,1.1-.5l1.6-.2c.6.9.7.2,1.3.5v.2c0,.3.3.4.4.1.3-.2-.2-1-.5-.9h0Z"/>
  <path class="st0" d="M20.7,24.1c-.3.5-.2,1,.1,1.4.6,0,.9-.8.8-1.3h.2v-.3h-.4c-.2-.3-.3-.3-.6,0h-.3s.2.2.2.2ZM23.6,25.2v.3c.1,0-.4.1-.4.1,0,0,0-.2-.2-.2v.2c-.1,0-.3.1-.3.1h.1c-.1.7,1.6.1,1.8-.1l-.2-.4c0-.3-.6,0-.8,0Z"/>
  <path class="st0" d="M20.5,25.3c0-.3,0-.5-.3-.7-.1-.2-.2-.4,0-.6-.1-.1-.2,0-.3-.2-.2-.1-.2,0-.3.2-.3,0-.1.1,0,.3,0,.3.5,1.1.9,1ZM25.7,27.4h-.7c.3-.2.7-.2.9-.5.2-.1.1-.5-.2-.6-.7-.2-1.5.1-2.3.2-1.5.4-.4-.3-1.6-.3.4,1.2,1.7.4,2.5.3,0,.2-.2.2-.2.3.3,0,.7.1.9-.1.1-.4.9-.4.7,0-.7.7-3,0-4,.5-.1.5-.4.8-.9,1-.3-.3-.5,0-.8-.1h0c0,0-.1,0-.1,0v.5c.3.2.9,0,1.3-.1.2,0,.3-.3.5-.3.5,0,.8-.3,1.2-.5h1.6c.6.7.7-.1,1.3.3v.2c-.1,0,0,0,0,0,0,.3.3.4.3.1.4-.2-.1-1-.4-.8Z"/>
  <path class="st0" d="M20.8,26.6c-.3.5-.2,1,.1,1.4.6,0,.8-.8.7-1.3h.2v-.3h-.3c-.2-.3-.4-.3-.6,0h-.3c0,.1,0,.2.2.3h0ZM23.7,27.7v.3c.1,0-.4.1-.4.1,0,0-.1-.2-.3-.2v.2h-.3c0,.1.2.2.2.2-.1.7,1.5,0,1.8-.2l-.2-.4c-.1-.2-.6,0-.8,0ZM20.3,27.1v.6c-.1,0,.2,0,.2,0,0-.1,0-.4-.2-.5h0ZM29,22.8c.2.1.3.5.3.5.2.2.5.8.8.7l.2-.4h-.1c-.3-.3-.5-.6-.5-.8l.2-.3c0-.2-.3,0-.4,0,0,0-.2-.3-.3-.2v.3h-.1c-.2,0-.3.1,0,.2h-.1Z"/>
  <path class="st0" d="M30.3,24.6l.3-.4h.2c.4-.1.7-.3.8-.8v-.5c-.1,0,.1-.3.1-.3h-.3c-.1,0-.4-.2-.5-.1s-.6.1-.6.3v.2h.3v.2h-.2c-.1.2.4.2.5,0h.2c0,.2-.3.3-.4.4-.2,0-.3.4-.4.5-.5.1-.6.1-1-.2-.2-.2-.3-.1-.2,0-.1,0-.5-.1-.3.2-.2.4.1.3.3.3.3.2.7.3,1.2.2Z"/>
  <path class="st0" d="M31.7,24.3v.4c.1,0,.6.2.6.2.2.2.2.6,0,.6-.3-.1-.5-.6-.8-.9,0,0-.2-.5-.3-.4-1.4.3.3.7,0,1.2,0,0-.2.4-.1.5l.5.4c.2.2,0,.5-.3.3-.1-.2-.3,0-.2.2-.2.3,0,.3.2.2,0,0,0,.2.1.1.3,0,.6-.2.7-.6.2-.3-.2-.3-.3-.6,0-.1,0-.6.1-.4.2.2.5.4.7.2.2-.2,0-.7,0-1-.2-.3-.5-.7-.4-1.2.2-.3.6.2.8-.7-.7,0-1.3.5-1,1.2.2.5,0,.4-.2.3Z"/>
  <path class="st0" d="M30.6,25c-.3,0-.6,0-.5.4v.5c.1,0,.1.1.1.1-.1,0-.6-.1-.6-.3s-.1-.2-.2,0c-.2-.2-.3,0-.3,0h0c-.2.2-.2.4,0,.4.5.2.9.4,1.4.3.5,0,.2,0,.2-.5s.6-.7,0-.8h-.1ZM31.1,31h-.1c0,.2-.2.1-.3.3h.2c0,.1.2.2.2.2.5-.2,1-.1,1.4-.5l-.2-.4h-.8q0,.2.2.3c-.2.1-.4.2-.6,0h0Z"/>
  <path class="st0" d="M38.4,25.9c-.2-.4-.6-2.6-1.2-2,2.6,5.3,1,11.6-3.8,15-1.4.9-3.2,2.3-4.8,1.4,1-4.2,6.2-2.4,7.3-10.4h-.3c-.2,1-.5,2.1-.9,3.1.5-1.2.2-4.9.3-5l-.3-.4v1.2h-7.7v-8h7.7v4.8l.2-.2v-5h-16v4.2h.2v-3.9h7.7v8.1h-7.8v-.6h-.2c-.2.6.3,5.7,1.1,6.6-1.6-1.6-2.2-4.5-1.9-6.7l-.3-.3c-.5,3.1.6,6.1,2.8,8.3.2.2.4,0,.6,0l-.2-.3.2.2v-.3c-1.8-1.3-2.1-5-2.1-6.6h7.7v10.2c-1.7,0-2.8-1.9-4.4-1.9,2.3,1.3,6.5,4.6,9,3.2h.1c-.3.4-1.2,1-1.7.8-.7-.4-1.8.4-1.3,1.2v.3c-2.8-.3-5.3-2-7.7-3.4,1.2,1.2,2.6,2.1,4.1,2.8v1.8l.4.3v-2l2.6.8v1.3l.3-.3v-.9h.5c.2,0,.4-.5.4-.8l-.2-.4c0-.3.5-.4.7,0,.3,0,.7-.3,1-.4.5-.3,1.1-.6,1.4-1.1,0-.2,0-.3.2-.3,1-.6,2-1.2,2.8-2,3.5-3,4.7-8,3.5-12.3ZM27,29h7.8c.7,6-2.8,7.9-7.8,10v-10ZM27.2,39.6c.5-.5.9-.7,1.6-.9l-.6,1.4-1-.5ZM9.7,43c-.2,0-.4-.1-.6,0l.3,1.5c.7,0,1-1,.3-1.4Z"/>
  <path class="st0" d="M19.7,40.3c-4.4,0-8.7,1.7-13.2,1.7h-1.5c1.4,1,1.3,3.2,3.3,3.2h.3c2.7-.3,5.3-1,8-1.5.5,0,2.7-.6,4-.6s.8,0,.9.3c0,.2-.8,1-.8,1l1-.5c1.4-1-1.6-3.8-1.9-3.8v.2ZM10.4,43.9c-.2.6-1,.7-1.5.8l-.4-2c1-.4,2.4,0,2,1.2h-.1ZM11,44.2c0-.7-.1-1.4-.4-2h.6c0,.5.1,1.4.4,2h-.6ZM13.2,43.8l-1.2.2-.4-1.9,1.2-.3v.4h-.8v.6c.1,0,.8,0,.8,0v.3c.1,0-.6,0-.6,0v.7c.5,0,.7-.2,1-.3v.4c-.1,0,0,0,0,0ZM14.4,43.6c-.9,0-1-1.2-1.2-1.8h.4c.2.5.1,1.7,1,1.5.6-.3.1-1.3,0-1.7h.5c.1.7.5,2.1-.7,2ZM17.7,43l-1.2.3-.4-2,1.2-.2v.4h-.7v.5c.1,0,.8,0,.8,0v.3c.1,0-.6,0-.6,0v.7c.5,0,.7-.2,1-.4v.5ZM18.9,41l.3,1.7h-.4l-.3-1.6c-.2,0-.4,0-.7.2v-.3l1.7-.2v.3h-.6ZM40.1,42.1l-.3,1.4c.9.2,1.2-1.2.3-1.4ZM43.5,42.7c-.7-.2-.9,1.2-.3,1.4.6.2.9-1.2.3-1.4ZM41.8,42.4l-.2.8c.5,0,.8-.7.2-.8ZM36.5,41.4c-.7-.2-1,1.2-.4,1.5.7.2,1-1.3.4-1.5Z"/>
  <path class="st0" d="M46.3,42.1h-1.3c-2.9-.3-5.8-1.1-8.7-1.6l-2-.2c-1.3,0-2.1.5-3.1,2.6-.5.8,1,1.6,1.3,1.6-1.2-1-.8-1.3,0-1.3,1.3,0,3.5.6,4,.7,2.6.4,5.3,1.2,8,1.4h.3c2,0,1.9-2.1,3.3-3.2h-1.9ZM35.4,41l-.3,1.8h-.4l.2-1.4-.8,1.2-.4-1.3-.2,1.3h-.5c.2-.3.4-2.1.4-2.1l.5.2.3,1.2.7-1h.5ZM37.1,42.4c-.4,1.4-2,.6-1.5-.6.4-1.3,2-.6,1.5.6ZM38.6,43.6c-.2,0-.9-1.5-.9-1.5l-.2,1.2h-.3l.3-1.9h.4l.6,1.4.2-1.1h.3s-.4,1.9-.4,1.9ZM40.3,43.8h-.9c0,0,.4-2,.4-2,1.2,0,1.7,1.5.5,2ZM42.5,42.8c0,.3-.2.5-.5.5l.4,1h-.3c0,0-.5-1-.5-1,0,.3-.2.6,0,.8h-.5l.4-2c.5,0,1.3.2,1.1.8h0ZM43.5,44.4c-1.2.2-1.2-1.7-.3-2,1.2-.2,1.2,1.7.3,2ZM44.6,43.3c0,.3-.2,1,0,1.3h-.5c.2-.6.3-1.3.3-1.9h.5s-.2.6-.2.6ZM45.6,43.2l-.2,1.6h-.4c0,0,.3-1.7.3-1.7-.2,0-.3,0-.5,0l.2-.3,1.2.2v.4l-.5-.2h0Z"/>
</svg>