<svg xmlns="http://www.w3.org/2000/svg" viewBox="0 0 53.6 47.5">
  <path d="M47.9 26h-.1l-.4-1c.2-.2.3-.5 0-.7-.3-.1-1.2-1.2-1.5-.5-.1 0-.9 0-1 .2-.3-.5-.6-1.1-.8-1.8.2-.8 2.2-1.7 2.2-1.7l-.8-1.3c-.1.2-.2.1-.4.2 1-2 1.3-4.6-.2-6.5-.1-.4 0-.8-.2-1.1-.3-.4-.4-1-1-1.1 0 .6 0 1.2.3 1.7.3.4-.4.7-.6.4.4 0 .5-.1.3-.3-1.8-.5-2.9.9-4.7 1l-.4.3c-1 1.4 1.4.4 1.6 1.4-.4.3-.4.1-.8 0-.6 0-1.1.2-.4.7-.4.6-.4.9-1.3 1 .4.5.3 1.2.4 1.8-.6.1-1 .4-1 1-.3.1-.6 0-.8.3a2 2 0 0 0-1.3-.4l-1.4-.8.4-1.3 1-.6c-.2-.1-.5-.8-.6-1 1.1-3.8 1.5-4 2-4v-.1l-2-.7v.1c.5.4.7 1 .4 1.8-.5-.3-.8-.8-.7-1.3h-.2l-.7 2.3h.1c.3-.4.8-.6 1.3-.5-.6 2-3.4 1.4-3-.3.4-.7 1.1-.3.8.4 1.6-.5.6-2.8-.7-1.4.4-1 .7-1.7.1-2.6-.7.5-1 1.4-.8 2.5-.9-2-2.4 0-1.2 1.1-.2-1.5 1.7-.5.4.7-1.2.9-2.7 0-2.7-1.6.7 0 1.2.5 1.3 1l.2-2.6h-.2c0 .5-.6 1-1.4 1 0-.8.5-1.4 1.1-1.5V10h-3v.2c.6 0 1 .7 1.1 1.5-.7 0-1.3-.5-1.4-1h-.1v2.6h.2c0-.5.6-1 1.3-1 0 1.5-1.5 2.5-2.8 1.6-1.2-1.2.7-2.2.4-.7 1.3-1-.3-3.2-1.2-1.1.2-1.1 0-2-.8-2.5-.5 1-.3 1.6.2 2.6-1.4-1.4-2.3.9-.7 1.4-.4-.7.3-1.1.7-.4.5 1.7-2.3 2.3-3 .3.6-.1 1 .1 1.3.5h.1l-.7-2.3H20c0 .5-.3 1-.8 1.3-.2-.8 0-1.4.5-1.8l-2.1.6c.6.1 1 .3 2 4.1l-.5 1 1 .6c0 .4.2.7.3 1.1-2.8 1.3-2.1 2.2-4.2 2-.2.4-.4.8-.8 1.1-.1-.7-.4-1.2-.8-1.6-.2-.3-.5 0-.8 0-.5 1.2-1 .1-2 .8.1.6.2 1.1.5 1.7-.7 0-1.3-.3-1.8-.6-2.3 2.5-4.6 4.9-6.5 7.6-1 1.4-3.8.6-3-1.3.3-1.3 2.2-1 2.1.3 1-1 .4-2.1-1.1-1.9 1.3-.6 2.2.5 3.4-1-1 0-1.7-.3-2.7 0 1.2-.8 2.8.3 3.8-1.7-.8.1-1.6.5-2.5.6 5.4-5.2.2-5.4.8-7.7-.4.4-.6.7-.4 1.2-1.3-.5-3-.3-3.6-1.8-.1 2 .8 2 2.4 2.4-.7-.1-1.4-.1-2.1-.4.1 1 .8 1.2 1.7 1-.8.5-.6 1.7.2 2.1-.5-3 4-2 2 .8-1 1.5-2.4 2.5-3.6 3.8-.2-.4-.5-.8-1-.7 1 1-.1 2.2-.3 3.2-.4 1.4.8 2.5 2 2.6-.5.6-.5 1.2-.1 1.6.4-1.9 3.2-1.5 3.4-3.6 0-.2.2-.4.5-.5C4.6 30 7.7 33 4.8 33.4c-.4 0-.5.5-.3.8-1.2-.1-1.5.3-1.7 1.5l1.5-.4c-.5 1.3-1.7-.1-1.5 2.3l1.4-.7c.4 1.3-2.2.7-.2 2.9a4 4 0 0 1 .9-1.4c-.3.7-.2 1.4.6 1.7v-.5h.1c.1.5.1 1.1.6 1.4l.3.3c0 .2.3.3.5.3.3 0 .3-.2.6-.4 0 .4.4.4.6.7.2-1.7-2.1-1-1.6-2.2.2.7.9.5 1.3.8.2.3.7.6.9.1l.6.5c-.5-2.1-1.6-.8-2.2-1.9.4 0 1 .7 1.4.2l.7 1c.1-.7-.1-1.2-.7-1.6-.5-.3-1.4.3-1.9-.4-.6-.9-.6-2-.3-3 .4-.8 1.3-1 1.7-1.8-.1.6 0 1.7.7 2-.2-1.2.6-2.3.8-3.4.2-.3.2-.6 0-.9-.3-.6-.4-1.3-.8-1.8-.6-1-1.4-1-.1-1.8-.8 1.1-.2.7.5 1.8.1-.3.7-.8 0-.8-1.1-.6 1.4-2 2-2 .5 0 1.3 0 1.8-.6-.3-.5-.6-.5-.1-1-.3-.2-.6-.5-.7-.9l-.8.3c.3-.3 1-1 1.2-.2 0 .4.4.5.7.5-.2.4-.6.7-.3 1 .3.3.4.8.8.8l.3-1c.8.8-.9 1.3 1.4 2-.1-.4-.2-.9-.1-1.3 1 .9-.5 1.4 2 1.7-.3-.3-.4-.7-.5-1 .4 0 .8.4 1 .7.3.4.5.6 1 .2l.1.2c.3.2.2.5.2.7.4-.3.4-.7.3-1.1-.2-.9-1.2-.2-1.6-1 .5.3 1 .5 1.5.2l.5.8c.3-.8 0-1.7-1-1.5-.2.1-.4.1-.6-.1.4.1.7-.1 1-.3v.2c.3 0 .5.1.7.3 0-.7-.7-1.3-1.4-1.1-.2.9-1 .4-1.6.2-1-.5-1.4-1.6-2.3-2.3.1-1-.8-1.8-1.8-1.8 1-.4 2 .4 2.1 1.4 0 .4.3.6.5 1 3.2-6.3 13.3-8 19-4l1.6 1.3c.2-.6 0-1.3 1-1h.2a1 1 0 0 1 .7-1.2v.4c-.2 0-.4.3-.4.5.2 0 .4.2.3.4l.5-.1h.4c-.2.5-.9.7-1.3.3.1.1-.2 1.2-.3 1.3 0 .2-.1.3-.3.3l.2.3c.2-.2.6-.2.6-.5 0-.2-.1-1.2.2-1.1 0 .4-.1.8.1 1.1.9-.2.5-1 1.5-1.1.4 0 1.3-.3 1.5.1-.9-.2-2 0-2.2 1-1 .3-1.7 1-2.7 1-.8 0-1 1-1 1.6-.2.7-.2 1.5-.5 2.1-.2.3 0 .6 0 .9.3.1.5 1.1.6 1.5 0 .7 1.2 1 1.6 1.3.2-.8-1.4-.6-1.2-1.7.3.7.9.9 1.6 1.3-.3-.8-.3-2.1-1.4-2-.4-.6.2-.6 0-1.3.3 0 .5.2.5.4l-.3-.1c0 .5.5.6.8 1 0-.9-.1-1.4-.9-1.8-.4-.4.1-1.3 0-1.8 0-.2 1-.7 1.3-.7.7.1 1.5 0 2.3.2.7.2 0-1.4 1.3-.5-.9-.3-.4.7-1 .7h-1.3c1.6 3.5 5.1 2.4 6 5.6.9-.7.3-.7.1-1.5 1.8 1.2-1.7 2.6-.4 4.8 0-.3.8-1.3.9-1.5.1-.2.4-.2.5 0l.3-.6c-.5-.2.4-1.4.5-1.7 0-.2.3-.3.4-.2l.3-.7c-.5-.1-.2-1.2-.2-1.6l-1.7-2h.3c0 .1 0 .3.2.4.2 0 1 .9 1.3.7l.2.4c-.3 0-.3.3-.3.5l.4.3v-.4h.4v.9l.4.4c0-.3.3-1.6-.2-1.7zm-9.2-12h.4c-.2-.2 0-.4.2-.3.4.4-.5 1-.6.3zm-18.2 3.3-1-.6.6-1 1.4.5-1 1.1zm3.2-.8c-1.5.3-1.8-1.3-.3-1.6 1.5-.3 1.8 1.3.3 1.6zm3.4-.1-1.5-1 1.5-1 1.4 1zm4.7-.5c-.2 1-2.6.6-2.4-.4.2-1 2.6-.6 2.4.4zm.8.3 1.4-.5.5 1-1 .6-.9-1.1zM44 11.4c.3.3.4.7.4 1-.3 0-.4-.3-.4-1zm-1.2 2c-.4.2-.7.6-1.1.1h-.2c.5-.8.5-.6 1.3-.1zm-3 3c.2.2.4.3.6 0-.2 0-.3-.1-.3-.3-.2-.8 1.2-.5 1.7-.5 1.2.8 3.3.3 2.6-1.5.5.4.3 1.4-.1 1.8-1.1.6-2.2.1-3.4 1.3-.1-.5-.8-.5-1 .1h-.5c0-.3.2-.5.3-.8zm4.2 5.4-.1.2a9 9 0 0 0-5.6-2.1v-.3l.6-.3-.5-.4-.3-1.9h.8s-.3.3-.3.6l.1.1c.2 0 .4-.4.4-.4v1.1l-.3-.4v.1c.1.7 1.2.8 1.2.2 0-.3-.4-.3-.4 0-.5-.4.2-1.1.5-.4 0-.4 0-.7.4-.9.2.3.1.6 0 1 .6-.7.9.4.2.6.3-.6-.6-.4-.2.2.3.5 1 .4 1.3-.1v-.1l-.7.2.4-1s.1.4.3.5h.2l-.2-.7 1.2.5s-.5 0-.7.3v.2l.8-.2-.5 1s-.1-.5-.3-.6h-.1c-.2.6.3 1.2.9 1 .6-.2.1-1 0-.3-.5-.6.5-1.2.6-.2 0-.5.3-.7.6-.8 0 .4 0 .6-.4.9.8-.3.8.7 0 .7.3-.3.1-.5-.1-.3-.5.4.3 1 1 .7-.1-.2-.5-.2-.5-.2l.8-.6v.6h.1c.2-.2.2-.6.2-.6l.6.7-1.7.9h-.5l.2.5zm3.2 3c-.2 0-.4 0-.3.3l-1-.6v-.2c.2 0 .4 0 .4-.3 0 .1 1 .6.9.8z" class="cls-1"/>
  <path d="M36.8 20.6v-.3l-.3 1 .2.2h.3l.2-.9c-.1 0-.3.1-.4 0zM24 44.7c-2.5-1-4.2 1.4-2.3 1.8-2.1 0-1.7-3-2.6-2.8.8.8.8 2.4 1.5 2.9 1.5.6 3 .7 4.5.6-.8-.7-1-1.6-1.2-2.5zm7.3 1.8c2-.4.3-2.8-2.2-1.8-.2.9-.4 1.8-1.2 2.5 1.6 0 3.1 0 4.6-.7.7-.4.7-2 1.5-2.8-1-.2-.5 2.8-2.7 2.7zm15.9-19v.1h.4c.2 0 .1-.3.1-.4l-.4-.5zm-.6 2.9s.6-1.1.5-1.2l-.3-.1-.6 1c.2 0 .4.2.4.4z" class="cls-1"/>
  <path d="M53.5 25.8c-.5.1-.7.5-.9 1-1.2-2-3.7-3.3-4-5.8.3-2 2.8-1.5 2.3.6 1.4-.8.7-2.1-.6-2.3 1.4 0 2.2 1.2 3-.7-.7.3-2 .1-2.4 0 1.7-.2 2.7-.2 2.6-2.3-.6 1.3-2.2 1.3-3.3 1.7 0-.6-.1-.9-.6-1 .5 3-5.4 2 1 8.7-.7-.5-1.7-.3-2.4-.8.6 1.6 1.6 1.3 2.9 1.9-1.4 0-1.9 1.3-.8 2-.3-1 1.2-1.8 1.9-1 1.7 2.2-1.4 5.2-4.1-.2 0 .3-.2.6-.5.5l-.3.8c.6.2-.3 1.4-.4 1.8-.1.2-.3.3-.5.2l-.3.6c.3.3-.7 1.3-.8 1.6-.1.2-.3.2-.5.1v.3c.7.8 1 1.4.8 2.3.6-.5.8-1.8.4-2.5.5.5 1.2.9 1.5 1.6.3 1.2 0 2.4-.8 3.3-.3.4-.2.6-.3 1-.2.7-1 .8-1.4 1.3l-.7 1.5c1-.1.8-1.4 1.7-1.7L45 42c.8-.2 2.2-.4 2-1.5-.3-.4.2-.8.2-1.2.6-.2.4-.5.7-1 .2.4.2.6.1.9l-.1-.4c-.4.6-.1 1.1-.1 1.7 2-1.8-.7-1.8 1.4-5.8.5-.8-1.4-.7-1.5-2.5-.1-.8.5-1.5.7-2.2.8 1.4 3.7 1.4 3.3 3.2.5-.4.5-1.2.3-1.8 3-1 .6-3.7 1.6-5.7z" class="cls-1"/>
  <path d="m44.8 32.7.1.1h.2s.7-1 .6-1.1l-.2-.2h-.2c0 .2-.8 1-.6 1.2zm-.4.2zM16 37h.9l-1.3-2.3c-.8 1-2.2.4-3-.2-.8-.5.7-1.3.3-3 .6 1-.6 2 1.3 2.6-.5-.8-.5-1.9-.7-2.8v-.5c.1-.2.1-.5-.2-.5-2-1.2-1.6-.6-3.7-1-.5 1 .6 1.8.4 2.6-.1.5.5.4.5.9.1.6 0 1.5-.7 1.8-.3.2 0 .7.3.8-.7 1.1-.2 1.3.8 2 0-.5 0-1 .2-1.3 1.4.9-.7 1 2 2.2-.2-.5-.2-1-.2-1.4l.7.1c.3 1.3 1 1.4 2.2 1.3-.4-.4-.5-1-.8-1.4.3 0 .7-.2 1 .1zm24.6-7c-.3 0-.4.2-.4.5-.4 1-.4 2-1.1 2.8 1.5-.4 1.2-1 1.6-2.2-.1 1.6 0 1.6.6 2.7-1.2.8-3.2.1-3.8 1.7.2.2.4 0 .6 0-.1.2-.2.5-.4.6v-.3c-.4-.2-.7.8-1 1.2 3.1-.7-.4-1.6 5.8-2.3 1-.5-1-1.3 1.1-2.7.2-.8.3-1.5.7-2.2.1-.2 0-.5-.2-.7-1 .7-1.4-.4-3.5.9zM8.7 17v-.7h-.6A1 1 0 0 1 9 16c-.2 1 .2 1.7 1.3 1.7.3-.5.6-.5 1-.2-1.5-.1-.4 1.4.3.9.2-.3.8-.5.7-1-1.2-.8-1.1.5-1.3-1.6h-.2c0 .4-.5.7-.8.3l-.4-.3c.8-.6 1.7.3 1.7-1.1.9 1 1-.2 1.8-.2 0 .9-.2.8-1 .8.3.1 1.2 1 .7 1.2-.3-.6-.6-1.2-1.3-1.3-.5.5-.2 1.1-.2 1.7.5-.1.9-.4 1.4-.4.1.5-.6.7-.2 1.2.8.1 1.6.1 1.3-1-.2 0-.5-.2-.7 0 0-.3.4-.4.7-.3.7-.7.5-1.7-.3-2.3.2-.3.4-.5.8-.5-.1.2-.4.3-.4.5l.4.6c.4-.2.5-.8.3-1.4-.5 0-1.4.5-1.4.5-.4-.2-.2 0-.2.2-1.3.3-2.6.6-3.7 1.5-.2.2-.3 0-.3-.2-.2-.2-.2.2-.2.2s-.8.2-1.2.5c.3.4.6 1 1.2.9z" class="cls-1"/>
  <path d="M14 16.6c.1.6 0 1-.4 1.6.6 1 1.6 1.8 2 3 1-1.9 0-2.5-1.4-3.5.9.3 1.8.6 2.2 1.4.1-1.6-.6-2.4-2.1-2.6.6-.1 1.3-.1 1.9.3-.2-.5-.6-1.2-1.2-1.2.2-.4.2-.7 0-1 0 .3-.3.5-.6.5 0 .6 0 1-.4 1.5zm-5 3.6c.3.5.5 1 1 1.1-.3-.8.3-1.6.6-2.4 0 1.8-1 2.8 1.5 3.5-.7-1-.2-2.4-.6-3.5-.5-.2-1-.3-1.2-.6 0-.2-.2-.2-.3-.3-.5 0-1-.2-1.2-.6a1 1 0 0 1-.9 0c0 .3.4.7.8.6-.4.5-.2 1 0 1.5.2-.5.6-.9 1-1.1-.3.5-.9 1.1-.6 1.8zM19.2 39c.3-.4-.1-.6-.3-.8-3-2.9-4.2-6.5-4-10.6l-.2-.2A13 13 0 0 0 19.2 39zm27.1-23.6c-.3.6.5.8.5 1.3l-.6-.4c-.3 1 1 1.3 1.3 2.1.5-1.5.2-2.4-1.2-3zM13 19.9c-.9 0-.8-1-1-1.6l-.4.5.5 1.7.4-.3c.6.4 1 .2 1.3-.5.1 0 .3.1.4 0l-.8-1.6c-.1 0-.3-.2-.5 0 .2.5.9 1.5 0 1.8zM46.1 13h-.8c.3.9 1.4.4 2 .8-.4-.7-.6-1.4-1.5-1.5 0-.5 0-.9-.3-1 0 .3-.2.6-.5.8-.2.7.6.7 1 .8zm-.2 5.1c-.3.9.3 1.6.6 2.3.6-1.1.6-2.3-.3-3.2-.3.6 0 1.1.2 1.7l-.5-.7zm-.2-4.5c.3.9.9.7 1.2 1.2l-.8-.3c0 .9 1 1 1.7 1.3-.1-1.4-.8-2-2.1-2.2zm-3.2-1.5c.3 0 .9.3 1.2 0 0-1.1-1.5-1-2.3-1 .3.5.6.9 1 1zm-4.2 17.1h-1v.4l.6.1c0 1-.5 1-1.2.6-.2 1.3 1.8 1.1 1.6-1zm-.7-4c-1.1 1.4-1.1 1.6.6 2.2V27c-.4 0-.7-.2-1-.4l.6-.8-.2-.6zm-5.2-4.9h.5c.2-.7-.2-.8-.6-1.2-.2.6-.7.9-1 1.3.5 0 .7-.2 1-.5l.1.4zm2.6 3c.1-.5 1-1.5.5-1.9-.2.2-.6.1-.6.4v1.5zM43.3 11c-.4-.7-.6-.9-1.4-.9 0 .8.8.8 1.4 1zm-2.1-2c0 .6.5.9 1.3.9-.3-.6-.7-1-1.3-.9zm-1.9 6c-.6-.3-1.1 0-1.8 0 .2.8 1.3.2 1.8 0zm1.3-7c.1.7.4.8 1 .7-.2-.5-.5-.7-1-.6zm.3-.2c-.2-.5-.4-.6-.9-.5.2.5.5.7.9.5zm-3 16 .5.8c.6 0 0-.5 0-.7l-.5-.1zm-1.7.7.9-.5-.2-.3c-.3.3-.9.4-.7.8zm4-17.5c0-.3-.4-.7-.7-.6 0 .3.4.6.7.6zm-30.1 5.3c.2-.1 0-.4-.2-.2s0 .4.2.3zm.2.5c.2-.2 0-.4-.2-.3-.2.2 0 .5.2.3zm-1.1-2.1h-.4l.2.6.3-.4v.8c.1.6 1 .2.7-.3l-.4-.5h.4l-.2-.6-.3.3-.1-.5-.5.2.3.4zM8 13.4c.3 0 .3-.3 0-.3-.2 0-.2.3 0 .3zm0 .6c.3 0 .3-.4 0-.4-.2 0-.2.4 0 .4zm.8-1.8c.3 0 .3-.4 0-.4-.2 0-.2.4 0 .4zm-.6.8c.3 0 .3-.4 0-.4-.2 0-.2.4 0 .4z" class="cls-1"/>
  <path d="m10.6 13.5.1-.6-.8.3.5.3H10l.3.6c0-.2.2-.4.3-.4.3.5-.5 1-.9.6-.1-.2 0-.4.2-.2 0-.4-.3-.4-.4-.1 0-.4-.1-.6-.5-.8-.1.4 0 .7.4.9-.2 0-.5.1-.2.4 0-.2.2-.3.4 0 .1.4-.4.6-.8 0H9l-.4-.4v.4l-.2-.4-.3.2c.3.2.6.5 1 1.1C9.7 15 12 14 13 14c-.1-.8-.1-1.2 0-1.6h-.4l.1.4s-.2 0-.3-.3v.7c.2 0 .2-.2.3-.2 0 .6-.5.9-.7.4 0-.2.2-.3.3-.1 0-.4-.3-.4-.4-.3.2-.4 0-.6-.3-.8-.2.3-.1.6.2.9-.3-.2-.5 0-.3.4 0-.3.3-.2.3 0 0 .5-1 .7-1 0 0 0 .3 0 .5.2L11 13c0 .3-.2.4-.4.4zm10.7 21.1 1 .6c-.8.9.5 1.3.5.4.5.2 2.5.8 1.7-.4-2.7.1-4-2.6-2.5-4.8.8.5 4-1 3.7.5.1.1.2.2.6.2.9-2.1-2.2-1.5-3.3-1.3-1 .3-2-1.1-2.8-.3-.4.3-.1 1 .3 1s.6-.6.2-.7c.8-.3.4 1 .1 1.3-1-.5-1 1-.1.7v.7c-1-.2-.8 1.3 0 .7.2.2.3.5.3.8-1 .2-.2 1.5.3.6z" class="cls-1"/>
  <path d="M24.2 36.2h-.1c-.1.1-.2.5 0 .6l.8.4 1-.8.4-4.4H26c-.1 0-.7 5-1 4.8l.8-4.8h-.4v.2l-1.2-1.6H24l1.3 1.8v.3l-1.6-2h-.2l1.7 2.2-.1.3-2-2.5H23l2 2.7v.4l-2.3-3h-.3l2.5 3.2v.3L22 30.7v.3l2.6 3.6.2.8c0 .3-.2 1-.6.8z" class="cls-1"/>
  <path d="m24.5 34.8-2.7-3.5v.3l2.5 3.3h.2zm-2.7-2.3a205.2 205.2 0 0 1 2 2.4l-2-2.9v.5zm4.6-1.3-.9-.1c-.5.5 0 .8.5.7.4.1.8-.4.4-.6zm-.1 12.4c0 .4.5.5.6.1.1-.4-.5-.5-.6-.1zm.6-2.3c0-.5-.7-.7-.8-.2 0 .5.7.6.8.1zM24.3 40c0-.5-.7-.7-.8-.2-.1.5.7.6.8.2zm4.2 4.7c-.4 1.8-1.2 2.5-2 2.5-.7 0-1.5-.7-1.8-2.5l.3.3.1.3.3-.2.2-.1v.7c0 .5.5.9 1 .9s.9-.4 1-1l-.1-.6.3.1.2.2.2-.2c0-.2.2-.3.3-.4m.3-.5c-.4 0-.6.4-.9.7-.2-.1-.4-.3-.7-.3l-.4.1c.8.4.5 1.6-.2 1.6-.8 0-1.1-1.2-.3-1.6a.6.6 0 0 0-.4 0c-.2 0-.5 0-.7.2-.2-.3-.5-.6-1-.7.3 2.2 1.3 3.3 2.3 3.3 1 0 2-1 2.3-3.3zm-7.2-5.8c.3-.4-.8-.9-1-1.1-.1-.1-.3 0-.4 0-.3.4.8 1 1 1.2h.4z" class="cls-1"/>
  <path d="M21.5 39.3c1.3 0 1-2-.2-1.8.6.3 1.1 1.1.2 1.4-.4 0-.7-.3-1-.5 0 .5.5.9 1 .9z" class="cls-1"/>
  <path d="M19.6 39.6c.3.6 2 2 2.4 1.4-.8-.5-2.2-1.5-1.6-2.8-1.2-.7-.2-1.9.8-.9 1-.6 2-.1 3 .5.4-.7-1.3-1.2-1.7-1.5-.5-.1-2.1.2-2.6.2-.4 0-.7.4-.6.8 0 .4 0 2 .3 2.3zm14.7-28.9.7.2a9 9 0 0 0-5.8-5l-.2.6c2.2.6 4.1 2.1 5.3 4.2zm-15.3.2.8-.2c1.2-2.1 3-3.6 5.3-4.2a6 6 0 0 0-.2-.6 9 9 0 0 0-5.8 5zM32.6 7c.5 0 .5-.9 0-.9s-.5.8 0 .8zm-1.9-1.1c.6 0 .6-.9 0-.8-.5 0-.5.8 0 .8zm-1-.4c.6 0 .6-.8 0-.8-.5 0-.5.8 0 .8zm2 .8c.5 0 .5-.8 0-.8s-.5.9 0 .8zm1.7 1.3c.5 0 .5-.8 0-.8s-.5.8 0 .8zm2.1 3.1c0 .5.9.5.8 0 0-.6-.8-.6-.8 0zm-.5-1c0 .5.9.5.9 0s-.9-.5-.9 0zm-.8-1.3c.5 0 .5-.9 0-.9s-.5.9 0 .9zm.3.4c0 .5.8.5.8 0s-.9-.5-.8 0zM21.5 7c.5 0 .5-.9 0-.9s-.5.8 0 .8zm-.8.6c.5 0 .5-.8 0-.8s-.5.8 0 .8zM18.2 11c.5 0 .5-.8 0-.7-.5 0-.5.8 0 .8zm4.2-4.7c.5 0 .5-.8 0-.8s-.5.9 0 .8zm-3.1 2.9c.5 0 .5-.8 0-.8-.6 0-.6.8 0 .8zm-.6.9c.5 0 .5-.8 0-.8-.6 0-.6.8 0 .8zm5.7-4.6c.5 0 .5-.8 0-.8s-.5.8 0 .8zM20 8.4c.5 0 .5-.9 0-.9-.6 0-.6.9 0 .9zm3.4-2.5c.5 0 .5-.9 0-.8-.5 0-.5.8 0 .8zm4.4 3.7h.5c0-1.7.2-3.2.7-4.1.1-.3-.4-.6-.5-.3-.6 1.5-.7 3.4-.7 4.4zm-2 0h.6c0-1-.1-3-.8-4.4-.1-.3-.6 0-.5.3.5 1 .7 2.4.7 4.1zm1.2 0c.6 0 .6-.8 0-.8-.5 0-.5.8 0 .8zm0-1.1c.6 0 .6-.9 0-.9-.5 0-.5 1 0 1zm0-1.1c.6 0 .6-.9 0-.9-.5 0-.5 1 0 1zm-.3-1.1h.7c.6-1-1.3-1-.7 0z" class="cls-1"/>
  <path d="M27.4 5.4c.5-.9-1.2-.9-.7 0h.7z" class="cls-1"/>
  <path d="M26.8 1.7c0 .6-.4 1-.7 1.1v.1h.7l-.1.1c-1.3.3-1.4 2.3-.2 2.7-.5-.5-.1-1.3.6-1.3.6 0 1 .8.5 1.3 1.2-.5 1-2.4-.2-2.7h.6v-.2c-.3 0-.6-.5-.7-1 .6 0 1 .3 1 .7h.2v-2h-.1c-.1.3-.5.6-1 .7 0-.6.3-1 .6-1V0h-2v.1c.4.1.7.5.8 1.1-.6 0-1-.4-1-.7h-.2v2h.1c0-.4.5-.7 1-.8zm17.6 31.2-.1-.2v.2zm-.4.8c-.5-.3-.8 1.2-1 1.5-.2.2 0 .5.1.6l-.4.8c-.2 0-.4.1-.4.4.1.3-.2 1.8.4 1.8v.4c-1.5.3-1.3 2.5.2 2.5s1.7-2.2.3-2.5v-.4c.2 0 .4 0 .4-.3 0-.4.2-1.8-.3-1.9l.3-.6c.6.3.9-1.2 1-1.5.2-.2 0-.4 0-.5l.2-.5-.4-.5-.3.7zm-.2 6.8c-.4 2-3 0-1.1-.9 0 .2.4.2.5 0 .3.1.6.5.6.9zm-.6-2c0-.4-.3-.5-.5-.3 0-.1-.1-1.2.1-1.2h.3l.1.1v1.3zm1-4-.5 1.1-.3-.1s-.1-.1 0-.2c0 0 .4-1.2.6-1.2 0 .1.1.2.3.2v.1zm-28.8-3.3v.5l2.3-.3V31l-1.6.2s1.3-1.5 1.3-1.7l-2.3.2v.4l1.4-.1-1.1 1.2zm.8 2.8c1 1.1 2.7-.5 1.6-1.6-1-1-2.8.6-1.6 1.7zm0-1c.6-1 2.1-.4 1.5.6-.5.8-2 .3-1.4-.7zm1.5 3.5.4.6c.4-.5 1.2-1.1 1.8-1.4l-.4-.5-.7.7-.6-.8c.2-.2.6-.5.8-.5l-.3-.5c-.4.5-1.3 1-1.9 1.3l.4.5.7-.6.6.8-.8.4zm-.2-7.8v-.4h-2.3v.4h2.3zm16.2 9.7c1.3-.6 1-2-.5-1.3-.7-.2.2-.9.6-.7l-.3-.4c-.5.2-1.3.8-.9 1.4.3.4.9 0 1.3 0 .6 0 0 .7-.5.7m4-4.5.4-1.3-2.1-.6-.4 1.3.4.3.1-1 .7.2-.3.7h.3l.3-.6.6.2c0 .2-.2.4-.3.5l.3.3zm-.9 1.8.2-.4-1.7-1.2-.2.4 1.2.7-2 .4 1.8 1.2.2-.3-1-.6 1.5-.2zm-4.8 4.3 1.2-.7c-.1-.1-1.1-1.7-1.1-1.9l-1.2.7v.5l.8-.7.4.6-.7.4.2.2.6-.3.4.5-.6.2v.5zM18 24.3c-.3-.3-.7.2-1.1.3-.6 0-.1-.8.2-.8l-.3-.3c-.5.3-1 1.6 0 1.6l.8-.4c.5 0 .3.5 0 .7h.4c.3-.4.4-.9 0-1.1zm.5-.7c-1 0-1.2-1.8 0-1.6v-.4c-1.5 0-1.5 2.5 0 2.4zm2.5-3.1h.8l-.5-.8 1-.3-.6-.4-1.7 1 .2.7.6-.7.3.5zm5-.3c-.3.3-.7.2-1.1 0-1 .6-2.2-.8-1.4-1.7 1-1 2.7.1 1.9 1.3l.6.4zm-1.3-.3c.9-.4.1-1.7-.6-1.4-.8.4-.1 1.7.6 1.4zm1.6-.6v-1.4h.7c-.1.4-.4 2 .3 1.9.3 0 .5-.2.5-.5l-.1-1.4h.7v2.2h-.6V20c-.6.5-1.5.2-1.5-.6zm3.2 1.1c.2-.6.4-1.5.7-2l-.6-.2c0 .6-.3 1.5-.5 2l.4.2zm3.6 7.3h.4v-6H28v6zm-5-2.7h.2v.1c.2 0 .2-.3 0-.3h.3v-.1l-.3-.1c.2 0 .2-.3 0-.3 0 .1-.1.2-.1 0v.1-2.3h.2v-.2h2c.1 0 0 .2 0 .1-.1.2.2.2.2 0l.1.3.2-.3c0 .2.3.2.3 0H31h2.2s0 3-.1 2.3c-.2 0-.2.3 0 .3h-.3v.1l.2.1v.3h.1c.2-.7 0 2.3.1 2.2H33v.2h-2c-.1 0 0-.2 0 0v-.1c0-.2-.2-.2-.2 0l-.1-.2h-.1l-.1.2c0-.2-.3-.2-.3 0l.1.1h-2v-.2h-.2V25z" class="cls-1"/>
  <path d="M34.3 27.9c0-.1-.1-.2-.3-.2-.2 1 0-3 0-2.9l.1.1v-.4H34v-3s.3 0 .1.1c.3.2.4-.3.1-.3l.2-.3-.4.2c0-.3-.5-.2-.4 0 .2-.1.3.1.1.1H31v-.1h-.4v.1h-2.7c-.1 0 0-.2.1 0 .1-.3-.3-.4-.3-.1l-.4-.2.2.3c-.3 0-.2.5 0 .4.3-1 .1 3 .2 2.8h-.2v.4h.2c0-.1 0 3.8-.2 2.9-.2-.2-.3.3 0 .3l-.2.3.4-.1c0 .2.4.2.3-.1h-.1V28h2.8l-.1.2h.5L31 28h2.7l-.1.1c-.2.3.3.3.3 0l.3.2V28l.1-.2zM31 21.5h2.7v6.4h-6v-6.4H31zM8.3 13.8l.2-.2c0-.5.3-1 .7-1.3v-.1a2 2 0 0 0-.9 1.6zm1.3-.8h.1c0-.3-.2-.7-.5-1 0 0-.1 0 0 .1l.4.9zm-1.1-.4c.2 0 .2-.4 0-.4-.3 0-.3.4 0 .4zm3.7-.9c-.2.2-.4 0-.3-.3.2-.2.5.1.3.3zm.4.3c-.2.2-.4 0-.3-.2.2-.2.5 0 .3.2zm-1.8-.6c-.2.2-.5 0-.3-.3.2-.2.5.1.3.3zm1 .1c-.2.2-.5-.1-.3-.3.2-.2.5.1.3.3zm.4.6h-.1c-.5-.3-1-.4-1.5-.4v-.1a2 2 0 0 1 1.6.5zm-1.4.4h-.2l-.2-1c0 .3.2.7.4 1zm.5-1.1c-.2.2-.5-.1-.3-.3.2-.2.5 0 .3.3zm21.2 21.1c.5 0 1.8-.6.9-1.1-.6-.1-1 .1-1.6.3-2 .8-.9-.2-2.2-.1.5 1.1 1.6.5 2.4.3l-.1.3.8-.2c.1-.5 1.1-.6.7 0-1.2.5-2.5.4-3.7.7-.8 2.1-2.2.7-2.2 1.3-.3 0-.3.3 0 .3 0 .6 1.6-.1 1.9-.3 0-.1 0-.3.2-.4.4.2.8-.5 1.2-.6.4 0 .9-.4 1.2 0 .4.4 1-.3 1.3.1l.1.4c0 .2.3.2.4 0v-.1c.2-.3-.1-.6-.3-.8-.3-.3-.7.2-1 0z" class="cls-1"/>
  <path d="M27.3 31.6v.2l1.6-.2c.3 0 .3-.3.6-.3.7 0 1-.6 1.7-.7.5-.1 1.1-.3 1.6 0 0 .2.2.2.4.2s.5-.1.6.1l-.2.1.1.2.2.1c0 .1.2.1.2 0l.2-.1c0-.3 0-.7-.4-.9-.1-.1-.7.2-.7-.1.4.1 1.2-.5.7-.8-1-.3-2 .2-3 .3-.5.1-.3-.5-1.1-.4.5 1.2 1.7.4 2.7.4 0 0-.2 0-.2.2.3-.1.8 0 .9-.2 0-.3.8-.3.6.1-.5.3-1.3.2-2 .3-.7 0-1.5 0-2.2.3-.1.4-.3.9-.8 1-.4-.4-.9 0-1.2-.3-.2 0-.2.1-.2.2-.2 0-.3.2-.1.3zm5.5 3c-1 0-.8.6-1.3.4 0 0 .3-.1.2-.3l-2.1.9c-.4.3-.3 1.1-1.1 1.2 0 .4-.6.6-1 .5v.3c-.1 0-.3.3 0 .3l.2-.1v.2h.1c.2-.2.3 0 .4-.2.5-.3 1-.5 1-1.1.8-.3 1.2-1.5 2.2-1.1.5.2.6-.5 1-.5.1.2.2.2.3.1.3.2.3-.1.4-.3l-.3-.3z" class="cls-1"/>
  <path d="M28.4 30c-.2.4 0 1 .4 1.2.5-.2.8-.8.6-1.3.1-.1.3-.2.2-.3 0-.2-.3 0-.4-.3-.2-.2-.4 0-.6.1h-.3c0 .2.2.3 0 .5zm-.1 6.1c.4 1.1 1.1-.3 1-.8.3-.3.2-.4-.2-.5-.1-.3-.4-.3-.6 0h-.3c-.2.1-.1.3 0 .4v1zm1.2-4.1h-.3c-.1-.4-.4-.2-.7 0-.3-.1-.3.2 0 .4-.3.4-.1 1 .3 1.2.5-.2.6-.8.6-1.2.2 0 .3-.2.1-.3zm3.5 1.5c-.9-.3-2.2 1.6-2.8 1-.1-.3-.6-.2-.8-.1.3.2.5.7 1 .6.5-.1 1-.6 1.4-.8l-.2.4c.4-.1.7-.2.9-.4 0-1 1.3-.3 0 .3l.5-.1c.3-.3.4-.6 0-.9zm-2 2.1c-.2.1-.5.1-.6.4 0 0 0 .2.2.3-.2.3-.5.2-.8.2v.6c.1 0 .3-.2.3 0 .6-.2 1-.5 1.3-1a1 1 0 0 1-.4-.5z" class="cls-1"/>
  <path d="M30.3 33.7v.3h.2v.1c.5 0 1.2-.4 1.4-.8l-.3-.4c-.2 0-.5 0-.6.3l.2.3c-.2 0-.4.2-.5 0-.1 0-.3 0-.3.2zm-2 2.9-.5-1c.1-.2 0-.5-.2-.3-.1-.2-.2-.2-.4-.2v.3c0 .3.1.4.2.5.2.3.5 1.1 1 .7zm0-5.6c0-.5-.5-.8-.4-1.2v-.3h-.3c-.2-.1-.2.1-.2.3h-.2c.2.4.6 1.4 1.1 1.2zm-1 1.6c.2.3.2.8.6 1h.5c-.1-.4-.6-.6-.5-1l-.1-.3c-.2 0-.5-.4-.4 0-.1.1-.2.2-.1.3zm-7.8-9.4h.3v.2c.4.2 1 0 1.4-.2.2 0 .3-.3.5-.2.5 0 .8-.4 1.2-.5l1.6-.2c.6.8.7.1 1.2.4v.3h.1c0 .2.3.3.3 0 .4-.2-.1-1-.5-.8h-.5c.3-.2.7-.2.9-.4.1-.2.1-.6-.2-.7-.7-.2-1.5.2-2.3.2-1.4.4-.4-.3-1.6-.3.4 1.2 1.7.5 2.5.4l-.2.3c.3 0 .7 0 .9-.2.1-.3.9-.4.7 0-.7.8-3 .1-4 .6-.1.4-.4.7-.8.9-.4-.3-.6 0-1-.1 0-.1-.1-.2-.3-.1v.1c-.2 0-.3.2-.2.3z" class="cls-1"/>
  <path d="M20.8 21.4c-.3.5-.2 1 .1 1.4.6 0 .9-.8.8-1.3l.1-.1v-.2h-.3c-.2-.3-.3-.3-.6 0h-.3l.2.3zm2.9 1.1.1.3-.5.1s-.1-.2-.3-.2v.2l-.3.1.2.1c-.1.6 1.5 0 1.8-.2l-.2-.4c-.1-.2-.6 0-.8 0zm-3.1.1a1 1 0 0 0-.3-.7c-.2-.1-.2-.4 0-.6-.1-.1-.3 0-.4-.2 0-.1-.2 0-.2.2-.3 0-.1.2 0 .3 0 .3.5 1.1.9 1zm5 2.3c-.2 0-.4.1-.5-.1.3-.1.6 0 .8-.4.2-.2.2-.5-.1-.6-.8-.3-1.6.1-2.4.2-1.4.4-.4-.3-1.5-.3.4 1.2 1.6.4 2.5.3l-.3.3c.3 0 .7 0 1-.2 0-.3.8-.3.7.1-.8.7-3 0-4 .5-.2.5-.5.8-1 1-.2-.3-.4-.1-.6-.1v.5l1-.2c.1-.1.2-.3.5-.3.4 0 .7-.4 1.1-.5l1.6-.2c.6.9.7.2 1.3.5v.2c0 .3.3.4.4.1.3-.2-.2-1-.5-.9z" class="cls-1"/>
  <path d="M20.7 24.1c-.3.5-.2 1 .1 1.4.6 0 .9-.8.8-1.3l.2-.1v-.2h-.4c-.2-.3-.3-.3-.6 0h-.3l.2.2zm2.9 1.1.1.3-.5.1s0-.2-.2-.2l-.1.2-.2.1.1.1c-.1.6 1.6 0 1.8-.2l-.2-.4c0-.3-.6 0-.8 0z" class="cls-1"/>
  <path d="M20.5 25.3c0-.3 0-.5-.3-.7-.1-.2-.2-.4 0-.6-.1-.1-.2 0-.3-.2-.2-.1-.2 0-.3.2-.3 0-.1.1 0 .3 0 .3.5 1.1.9 1zm5.2 2.1H25c.3-.2.7-.2.9-.5.2-.1.1-.5-.2-.6-.7-.2-1.5.1-2.3.2-1.5.4-.4-.3-1.6-.3.4 1.2 1.7.4 2.5.3 0 .2-.2.2-.2.3.3 0 .7.1.9-.1.1-.4.9-.4.7 0-.7.7-3 0-4 .5-.1.5-.4.8-.9 1-.3-.3-.5 0-.8-.1V28h-.1l-.1.5c.4.2 1 0 1.4-.1.2 0 .3-.3.5-.3.5 0 .8-.3 1.2-.5l1.6-.1c.6.8.7 0 1.3.4l-.1.2h.1c0 .3.3.4.3.1.4-.2-.1-1-.4-.8z" class="cls-1"/>
  <path d="M20.8 26.6c-.3.5-.2 1 .1 1.4.6 0 .8-.8.7-1.3l.2-.1v-.2h-.3c-.2-.3-.4-.3-.6 0h-.3c0 .1 0 .2.2.3zm2.9 1.1.1.3-.5.1s-.1-.2-.3-.2v.2l-.3.1.2.1c-.1.7 1.5 0 1.8-.2l-.2-.4c-.1-.2-.6 0-.8 0zm-3.4-.6v.3l-.1.3h.3c0-.1 0-.4-.2-.5zm8.7-4.3c.2.1.3.5.3.5.2.2.5.8.8.7l.2-.4h-.1c-.3-.3-.5-.6-.5-.8l.2-.3c0-.2-.3 0-.4 0 0 0-.2-.3-.3-.2v.3h-.1c-.2 0-.3.1 0 .2z" class="cls-1"/>
  <path d="m30.3 24.6.3-.4h.2c.4-.1.7-.3.8-.8l-.1-.5.2-.3h-.3c-.1 0-.4-.2-.5-.1-.1.1-.6.1-.6.3l.1.2h.2v.2h-.2c-.1.2.4.2.5 0h.2c0 .2-.3.3-.4.4-.2 0-.3.4-.4.5-.5.1-.6.1-1-.2-.2-.2-.3-.1-.2 0-.1 0-.5-.1-.3.2-.2.4.1.3.3.3.3.2.7.3 1.2.2z" class="cls-1"/>
  <path d="m31.7 24.3.1.4.5.2c.2.2.2.6 0 .6-.3-.1-.5-.6-.8-.9 0 0-.2-.5-.3-.4-1.4.3.3.7 0 1.2 0 0-.2.4-.1.5l.5.4c.2.2 0 .5-.3.3-.1-.2-.3 0-.2.2-.2.3 0 .3.2.2 0 0 0 .2.1.1.3 0 .6-.2.7-.6.2-.3-.2-.3-.3-.6 0-.1 0-.6.1-.4.2.2.5.4.7.2.2-.2 0-.7-.1-1-.2-.3-.5-.7-.4-1.2.2-.3.6.2.8-.7-.7 0-1.3.5-1 1.2.2.5.1.4-.2.3z" class="cls-1"/>
  <path d="M30.6 25c-.3 0-.6 0-.5.4l.1.5v.1c-.1 0-.6-.1-.6-.3 0-.1-.1-.2-.2 0-.2-.2-.3 0-.3 0v.1c-.2.1-.2.3 0 .3.5.2.9.4 1.4.3.5 0 .2 0 .2-.5 0-.4.6-.7 0-.8zm.5 6H31c0 .2-.2.1-.3.3l.2.1.2.1c.5-.2 1-.1 1.4-.5l-.2-.4h-.8c0 .2 0 .2.2.3-.2.1-.4.2-.6 0z" class="cls-1"/>
  <path d="M38.4 25.9c-.2-.4-.6-2.6-1.2-2a12 12 0 0 1-3.8 15c-1.4.9-3.2 2.3-4.8 1.4 1-4.2 6.2-2.4 7.3-10.4l-.3-.1c-.2 1.1-.5 2.2-.9 3.2.5-1.2.2-4.9.3-5l-.3-.4v1.2H27v-8h7.7v4.8l.2-.2v-5h-16v4.2h.2v-3.9h7.7v8.1H19v-.6h-.2c-.2.6.3 5.7 1.1 6.6-1.6-1.6-2.2-4.5-1.9-6.7l-.3-.3c-.5 3.1.6 6.1 2.8 8.3.2.2.4 0 .6 0l-.2-.3.2.2-.1-.3c-1.7-1.3-2-5-2-6.6h7.7v10.2c-1.7-.1-2.8-1.9-4.4-1.9 2.3 1.3 6.5 4.6 9 3.2h.1c-.3.4-1.2 1-1.7.8-.7-.4-1.8.4-1.3 1.2v.3c-2.8-.3-5.3-2-7.7-3.4a14 14 0 0 0 4.1 2.8v1.8l.4.3v-2l2.6.8v1.3l.3-.3v-.9l.5-.1c.2 0 .4-.4.4-.7l-.2-.4c0-.3.5-.4.7-.1.3.1.7-.3 1-.4.5-.3 1.1-.6 1.4-1.1 0-.2 0-.3.2-.3 1-.6 2-1.2 2.8-2 3.5-3 4.7-8 3.5-12.3zM27 29h7.8c.7 6-2.8 7.9-7.8 10V29zm.2 10.6c.5-.5.9-.7 1.6-.9l-.6 1.4-1-.5zM9.7 43a1 1 0 0 0-.6-.1l.3 1.5c.7-.1 1-1 .3-1.4z" class="cls-1"/>
  <path d="M19.7 40.3C15.3 40.3 11 42 6.5 42H5c1.4 1 1.3 3.2 3.3 3.2h.3c2.7-.3 5.3-1 8-1.5.5 0 2.7-.6 4-.6.4 0 .8 0 .9.3 0 .2-.8 1-.8 1l1-.5c1.4-1-1.6-3.8-1.9-3.8zm-9.3 3.6c-.2.6-1 .7-1.5.8l-.4-2c1-.4 2.4 0 2 1.2zm.6.3a5 5 0 0 0-.4-2h.6c0 .5.1 1.4.4 2zm2.2-.4L12 44l-.4-1.9 1.2-.3-.1.4H12l.1.6.7-.1.1.3h-.7l.1.7c.4 0 .6-.2.9-.3l-.1.4zm1.2-.2c-.9 0-1-1.2-1.2-1.8h.4c.2.5.1 1.7 1 1.5.6-.3.1-1.3 0-1.7l.5-.1c.1.8.5 2.2-.7 2.1zm3.3-.6-1.2.3-.4-2 1.2-.2-.1.4h-.6l.1.5.7-.1.1.3h-.7l.1.7c.4 0 .6-.2.9-.4l-.1.5zm1.2-2 .3 1.7h-.4l-.3-1.6c-.2 0-.4 0-.7.2V41l1.7-.2v.3H19zm21.2 1.1-.3 1.4c.9.2 1.2-1.2.3-1.4zm3.4.6c-.7-.2-.9 1.2-.3 1.4.6.2.9-1.2.3-1.4zm-1.7-.3-.2.8c.5 0 .8-.7.2-.8zm-5.3-1c-.7-.2-1 1.2-.4 1.5.7.2 1-1.3.4-1.5z" class="cls-1"/>
  <path d="M46.3 42.1H45c-2.9-.3-5.8-1.1-8.7-1.6l-2-.2c-1.3 0-2.1.5-3.1 2.6-.5.8 1 1.6 1.3 1.6-1.2-1-.8-1.3.1-1.3 1.3 0 3.5.6 4 .7 2.6.4 5.3 1.2 8 1.4h.3c2 0 1.9-2.1 3.3-3.2h-1.8zM35.4 41l-.3 1.8h-.4l.2-1.4-.8 1.2-.4-1.3-.2 1.3-.5-.1c.2-.2.4-2 .4-2l.5.2.3 1.2.7-1h.5zm1.7 1.4c-.4 1.4-2 .6-1.5-.6.4-1.3 2-.6 1.5.6zm1.5 1.2c-.2 0-.9-1.5-.9-1.5l-.2 1.2h-.3l.3-1.9h.4l.6 1.4.2-1.1h.3l-.4 1.9zm1.7.2-.9-.1.4-1.9c1.2 0 1.7 1.5.5 2zm2.2-1c0 .3-.2.5-.5.5l.4 1-.3-.1-.5-.9c-.1.3-.2.6-.1.8H41l.4-2c.5.1 1.3.2 1.1.8zm1 1.6c-1.2.2-1.2-1.7-.3-2 1.2-.2 1.2 1.7.3 2zm1.1-1.1c0 .3-.2 1-.1 1.3H44a5 5 0 0 0 .3-1.9h.5l-.2.6zm1-.1-.2 1.6-.4-.1.3-1.6a1 1 0 0 0-.5 0l.2-.3 1.2.2v.4l-.5-.2z" class="cls-1"/>
</svg>